<mxfile host="app.diagrams.net" modified="2023-09-07T07:12:43.189Z" agent="Mozilla/5.0 (Macintosh; Intel Mac OS X 10_15_7) AppleWebKit/605.1.15 (KHTML, like Gecko) Version/16.4 Safari/605.1.15" etag="bCalYSBXQ4hvBw2wCQPL" version="21.7.2" type="github">
  <diagram name="Page-1" id="edf60f1a-56cd-e834-aa8a-f176f3a09ee4">
    <mxGraphModel dx="-1937" dy="-917" grid="1" gridSize="10" guides="1" tooltips="1" connect="1" arrows="1" fold="1" page="1" pageScale="1" pageWidth="1100" pageHeight="850" background="none" math="0" shadow="0">
      <root>
        <mxCell id="0" />
        <mxCell id="1" parent="0" />
        <mxCell id="y_Txg5mz7YeZRh-baJeL-305" value="" style="group" vertex="1" connectable="0" parent="1">
          <mxGeometry x="3420" y="2920" width="680" height="596" as="geometry" />
        </mxCell>
        <mxCell id="60e70716793133e9-14" value="로그인 상태" style="rhombus;whiteSpace=wrap;html=1;rounded=0;shadow=1;labelBackgroundColor=none;strokeWidth=1;fontFamily=Verdana;fontSize=8;align=center;container=0;" parent="y_Txg5mz7YeZRh-baJeL-305" vertex="1">
          <mxGeometry x="260.5" width="100" height="60" as="geometry" />
        </mxCell>
        <mxCell id="60e70716793133e9-15" value="로그인 화면" style="whiteSpace=wrap;html=1;rounded=0;shadow=1;labelBackgroundColor=none;strokeWidth=1;fontFamily=Verdana;fontSize=8;align=center;container=0;fillColor=#f5f5f5;fontColor=#333333;strokeColor=#666666;" parent="y_Txg5mz7YeZRh-baJeL-305" vertex="1">
          <mxGeometry x="420.5" y="10" width="120" height="40" as="geometry" />
        </mxCell>
        <mxCell id="60e70716793133e9-43" value="No" style="edgeStyle=orthogonalEdgeStyle;rounded=0;html=1;labelBackgroundColor=none;startSize=5;endArrow=classicThin;endFill=1;endSize=5;jettySize=auto;orthogonalLoop=1;strokeWidth=1;fontFamily=Verdana;fontSize=8" parent="y_Txg5mz7YeZRh-baJeL-305" source="60e70716793133e9-14" target="60e70716793133e9-15" edge="1">
          <mxGeometry x="-0.6744" y="10" relative="1" as="geometry">
            <mxPoint as="offset" />
          </mxGeometry>
        </mxCell>
        <mxCell id="60e70716793133e9-44" value="Yes" style="edgeStyle=orthogonalEdgeStyle;rounded=0;html=1;labelBackgroundColor=none;startSize=5;endArrow=classicThin;endFill=1;endSize=5;jettySize=auto;orthogonalLoop=1;strokeWidth=1;fontFamily=Verdana;fontSize=8" parent="y_Txg5mz7YeZRh-baJeL-305" source="60e70716793133e9-14" target="60e70716793133e9-16" edge="1">
          <mxGeometry x="-0.4884" y="-10" relative="1" as="geometry">
            <mxPoint as="offset" />
          </mxGeometry>
        </mxCell>
        <mxCell id="60e70716793133e9-45" style="edgeStyle=orthogonalEdgeStyle;rounded=0;html=1;labelBackgroundColor=none;startSize=5;endArrow=classicThin;endFill=1;endSize=5;jettySize=auto;orthogonalLoop=1;strokeWidth=1;fontFamily=Verdana;fontSize=8;entryX=0.5;entryY=0;entryDx=0;entryDy=0;" parent="y_Txg5mz7YeZRh-baJeL-305" source="60e70716793133e9-15" target="y_Txg5mz7YeZRh-baJeL-214" edge="1">
          <mxGeometry relative="1" as="geometry">
            <Array as="points">
              <mxPoint x="480.5" y="80" />
              <mxPoint x="310.5" y="80" />
            </Array>
          </mxGeometry>
        </mxCell>
        <mxCell id="y_Txg5mz7YeZRh-baJeL-214" value="마이페이지 화면" style="whiteSpace=wrap;html=1;rounded=0;shadow=1;labelBackgroundColor=none;strokeWidth=1;fontFamily=Verdana;fontSize=8;align=center;container=0;fillColor=#f5f5f5;fontColor=#333333;strokeColor=#666666;" vertex="1" parent="y_Txg5mz7YeZRh-baJeL-305">
          <mxGeometry x="250.5" y="100" width="120" height="40" as="geometry" />
        </mxCell>
        <mxCell id="60e70716793133e9-16" value="회원정보 화면" style="whiteSpace=wrap;html=1;rounded=0;shadow=1;labelBackgroundColor=none;strokeWidth=1;fontFamily=Verdana;fontSize=8;align=center;container=0;" parent="y_Txg5mz7YeZRh-baJeL-305" vertex="1">
          <mxGeometry x="250" y="160" width="120" height="40" as="geometry" />
        </mxCell>
        <mxCell id="y_Txg5mz7YeZRh-baJeL-204" value="&lt;font style=&quot;font-size: 8px;&quot;&gt;이름, 전화번호, 주소 &amp;nbsp;수정&lt;/font&gt;" style="shape=parallelogram;perimeter=parallelogramPerimeter;whiteSpace=wrap;html=1;fixedSize=1;shadow=1;rounded=0;" vertex="1" parent="y_Txg5mz7YeZRh-baJeL-305">
          <mxGeometry x="160" y="298.5" width="120" height="50" as="geometry" />
        </mxCell>
        <mxCell id="60e70716793133e9-18" value="비밀번호 변경" style="whiteSpace=wrap;html=1;rounded=0;shadow=1;labelBackgroundColor=none;strokeWidth=1;fontFamily=Verdana;fontSize=8;align=center;container=0;" parent="y_Txg5mz7YeZRh-baJeL-305" vertex="1">
          <mxGeometry x="341" y="230" width="120" height="40" as="geometry" />
        </mxCell>
        <mxCell id="y_Txg5mz7YeZRh-baJeL-210" style="edgeStyle=orthogonalEdgeStyle;rounded=0;orthogonalLoop=1;jettySize=auto;html=1;entryX=0.5;entryY=0;entryDx=0;entryDy=0;exitX=0.75;exitY=1;exitDx=0;exitDy=0;" edge="1" parent="y_Txg5mz7YeZRh-baJeL-305" source="60e70716793133e9-16" target="60e70716793133e9-18">
          <mxGeometry relative="1" as="geometry">
            <Array as="points">
              <mxPoint x="340" y="220" />
              <mxPoint x="401" y="220" />
            </Array>
          </mxGeometry>
        </mxCell>
        <mxCell id="60e70716793133e9-21" value="비밀번호 확인" style="rhombus;whiteSpace=wrap;html=1;rounded=0;shadow=1;labelBackgroundColor=none;strokeWidth=1;fontFamily=Verdana;fontSize=8;align=center;container=0;" parent="y_Txg5mz7YeZRh-baJeL-305" vertex="1">
          <mxGeometry x="351" y="454" width="100" height="60" as="geometry" />
        </mxCell>
        <mxCell id="60e70716793133e9-54" value="Yes" style="edgeStyle=orthogonalEdgeStyle;rounded=0;html=1;labelBackgroundColor=none;startSize=5;endArrow=classicThin;endFill=1;endSize=5;jettySize=auto;orthogonalLoop=1;strokeWidth=1;fontFamily=Verdana;fontSize=8;entryX=0.5;entryY=0;entryDx=0;entryDy=0;entryPerimeter=0;" parent="y_Txg5mz7YeZRh-baJeL-305" source="60e70716793133e9-21" target="y_Txg5mz7YeZRh-baJeL-278" edge="1">
          <mxGeometry x="-1" y="-10" relative="1" as="geometry">
            <mxPoint as="offset" />
            <mxPoint x="401" y="468.5" as="targetPoint" />
          </mxGeometry>
        </mxCell>
        <mxCell id="y_Txg5mz7YeZRh-baJeL-10" value="&lt;font style=&quot;font-size: 8px;&quot;&gt;비밀번호 수정&lt;/font&gt;" style="shape=parallelogram;perimeter=parallelogramPerimeter;whiteSpace=wrap;html=1;fixedSize=1;shadow=1;rounded=0;" vertex="1" parent="y_Txg5mz7YeZRh-baJeL-305">
          <mxGeometry x="341" y="298.5" width="120" height="50" as="geometry" />
        </mxCell>
        <mxCell id="y_Txg5mz7YeZRh-baJeL-202" style="edgeStyle=orthogonalEdgeStyle;rounded=0;orthogonalLoop=1;jettySize=auto;html=1;entryX=0.5;entryY=0;entryDx=0;entryDy=0;exitX=0.5;exitY=1;exitDx=0;exitDy=0;" edge="1" parent="y_Txg5mz7YeZRh-baJeL-305" source="60e70716793133e9-18" target="y_Txg5mz7YeZRh-baJeL-10">
          <mxGeometry relative="1" as="geometry" />
        </mxCell>
        <mxCell id="y_Txg5mz7YeZRh-baJeL-14" style="edgeStyle=orthogonalEdgeStyle;rounded=0;html=1;labelBackgroundColor=none;startSize=5;endArrow=classicThin;endFill=1;endSize=5;jettySize=auto;orthogonalLoop=1;strokeWidth=1;fontFamily=Verdana;fontSize=8;entryX=0.5;entryY=0;entryDx=0;entryDy=0;" edge="1" parent="y_Txg5mz7YeZRh-baJeL-305" target="y_Txg5mz7YeZRh-baJeL-291">
          <mxGeometry relative="1" as="geometry">
            <mxPoint x="400.71999999999935" y="348.5" as="sourcePoint" />
            <mxPoint x="400.71999999999935" y="378.5" as="targetPoint" />
          </mxGeometry>
        </mxCell>
        <mxCell id="y_Txg5mz7YeZRh-baJeL-303" style="edgeStyle=orthogonalEdgeStyle;rounded=0;orthogonalLoop=1;jettySize=auto;html=1;entryX=1;entryY=0.5;entryDx=0;entryDy=0;exitX=1;exitY=0.5;exitDx=0;exitDy=0;" edge="1" parent="y_Txg5mz7YeZRh-baJeL-305" source="y_Txg5mz7YeZRh-baJeL-21" target="y_Txg5mz7YeZRh-baJeL-10">
          <mxGeometry relative="1" as="geometry">
            <mxPoint x="620" y="320" as="targetPoint" />
            <Array as="points">
              <mxPoint x="620" y="484" />
              <mxPoint x="620" y="324" />
            </Array>
          </mxGeometry>
        </mxCell>
        <mxCell id="y_Txg5mz7YeZRh-baJeL-21" value="알림&lt;br&gt;비밀번호가 다릅니다." style="rounded=1;whiteSpace=wrap;html=1;shadow=1;labelBackgroundColor=none;strokeWidth=1;fontFamily=Verdana;fontSize=8;align=center;container=0;" vertex="1" parent="y_Txg5mz7YeZRh-baJeL-305">
          <mxGeometry x="491" y="464" width="100" height="40" as="geometry" />
        </mxCell>
        <mxCell id="y_Txg5mz7YeZRh-baJeL-200" style="edgeStyle=orthogonalEdgeStyle;rounded=0;orthogonalLoop=1;jettySize=auto;html=1;entryX=0;entryY=0.5;entryDx=0;entryDy=0;" edge="1" parent="y_Txg5mz7YeZRh-baJeL-305" source="60e70716793133e9-21" target="y_Txg5mz7YeZRh-baJeL-21">
          <mxGeometry relative="1" as="geometry">
            <mxPoint x="491" y="408.5" as="targetPoint" />
          </mxGeometry>
        </mxCell>
        <mxCell id="y_Txg5mz7YeZRh-baJeL-201" value="&lt;font style=&quot;font-size: 8px;&quot;&gt;No&lt;/font&gt;" style="edgeLabel;html=1;align=center;verticalAlign=middle;resizable=0;points=[];" vertex="1" connectable="0" parent="y_Txg5mz7YeZRh-baJeL-200">
          <mxGeometry x="-0.5452" relative="1" as="geometry">
            <mxPoint x="-9" y="11" as="offset" />
          </mxGeometry>
        </mxCell>
        <mxCell id="y_Txg5mz7YeZRh-baJeL-208" style="edgeStyle=orthogonalEdgeStyle;rounded=0;orthogonalLoop=1;jettySize=auto;html=1;entryX=0.5;entryY=0;entryDx=0;entryDy=0;" edge="1" parent="y_Txg5mz7YeZRh-baJeL-305" source="y_Txg5mz7YeZRh-baJeL-207" target="y_Txg5mz7YeZRh-baJeL-204">
          <mxGeometry relative="1" as="geometry" />
        </mxCell>
        <mxCell id="y_Txg5mz7YeZRh-baJeL-207" value="정보 변경" style="whiteSpace=wrap;html=1;rounded=0;shadow=1;labelBackgroundColor=none;strokeWidth=1;fontFamily=Verdana;fontSize=8;align=center;container=0;" vertex="1" parent="y_Txg5mz7YeZRh-baJeL-305">
          <mxGeometry x="160" y="230" width="120" height="40" as="geometry" />
        </mxCell>
        <mxCell id="y_Txg5mz7YeZRh-baJeL-209" style="edgeStyle=orthogonalEdgeStyle;rounded=0;orthogonalLoop=1;jettySize=auto;html=1;entryX=0.5;entryY=0;entryDx=0;entryDy=0;exitX=0.25;exitY=1;exitDx=0;exitDy=0;" edge="1" parent="y_Txg5mz7YeZRh-baJeL-305" source="60e70716793133e9-16" target="y_Txg5mz7YeZRh-baJeL-207">
          <mxGeometry relative="1" as="geometry">
            <Array as="points">
              <mxPoint x="280" y="220" />
              <mxPoint x="220" y="220" />
            </Array>
          </mxGeometry>
        </mxCell>
        <mxCell id="y_Txg5mz7YeZRh-baJeL-18" value="전화번호 인증" style="rhombus;whiteSpace=wrap;html=1;rounded=0;shadow=1;labelBackgroundColor=none;strokeWidth=1;fontFamily=Verdana;fontSize=8;align=center;container=0;" vertex="1" parent="y_Txg5mz7YeZRh-baJeL-305">
          <mxGeometry x="170" y="454" width="100" height="60" as="geometry" />
        </mxCell>
        <mxCell id="y_Txg5mz7YeZRh-baJeL-19" value="Yes" style="edgeStyle=orthogonalEdgeStyle;rounded=0;html=1;labelBackgroundColor=none;startSize=5;endArrow=classicThin;endFill=1;endSize=5;jettySize=auto;orthogonalLoop=1;strokeWidth=1;fontFamily=Verdana;fontSize=8;entryX=0.5;entryY=0;entryDx=0;entryDy=0;entryPerimeter=0;exitX=0.5;exitY=1;exitDx=0;exitDy=0;" edge="1" parent="y_Txg5mz7YeZRh-baJeL-305" source="y_Txg5mz7YeZRh-baJeL-18">
          <mxGeometry x="-1" y="-10" relative="1" as="geometry">
            <mxPoint as="offset" />
            <mxPoint x="219.71999999999935" y="467" as="sourcePoint" />
            <mxPoint x="220" y="537" as="targetPoint" />
          </mxGeometry>
        </mxCell>
        <mxCell id="y_Txg5mz7YeZRh-baJeL-20" value="No" style="edgeStyle=orthogonalEdgeStyle;rounded=0;html=1;labelBackgroundColor=none;startSize=5;endArrow=classicThin;endFill=1;endSize=5;jettySize=auto;orthogonalLoop=1;strokeWidth=1;fontFamily=Verdana;fontSize=8;exitX=0;exitY=0.5;exitDx=0;exitDy=0;entryX=1;entryY=0.5;entryDx=0;entryDy=0;" edge="1" parent="y_Txg5mz7YeZRh-baJeL-305" source="y_Txg5mz7YeZRh-baJeL-18" target="y_Txg5mz7YeZRh-baJeL-22">
          <mxGeometry x="-0.6744" y="10" relative="1" as="geometry">
            <mxPoint as="offset" />
            <mxPoint x="170" y="436.7199999999998" as="sourcePoint" />
            <mxPoint x="130" y="436.7199999999998" as="targetPoint" />
          </mxGeometry>
        </mxCell>
        <mxCell id="y_Txg5mz7YeZRh-baJeL-22" value="알림&lt;br&gt;전화번호 인증이 필요합니다." style="rounded=1;whiteSpace=wrap;html=1;shadow=1;labelBackgroundColor=none;strokeWidth=1;fontFamily=Verdana;fontSize=8;align=center;container=0;" vertex="1" parent="y_Txg5mz7YeZRh-baJeL-305">
          <mxGeometry x="30" y="464" width="100" height="40" as="geometry" />
        </mxCell>
        <mxCell id="y_Txg5mz7YeZRh-baJeL-304" style="edgeStyle=orthogonalEdgeStyle;rounded=0;orthogonalLoop=1;jettySize=auto;html=1;entryX=1;entryY=0.5;entryDx=0;entryDy=0;" edge="1" parent="y_Txg5mz7YeZRh-baJeL-305" source="y_Txg5mz7YeZRh-baJeL-278" target="y_Txg5mz7YeZRh-baJeL-214">
          <mxGeometry relative="1" as="geometry">
            <Array as="points">
              <mxPoint x="680" y="566" />
              <mxPoint x="680" y="120" />
            </Array>
          </mxGeometry>
        </mxCell>
        <mxCell id="y_Txg5mz7YeZRh-baJeL-278" value="&lt;font size=&quot;1&quot;&gt;회원 DB&lt;br&gt;비밀번호 수정&lt;/font&gt;" style="shape=cylinder3;whiteSpace=wrap;html=1;boundedLbl=1;backgroundOutline=1;size=7.974358974358893;" vertex="1" parent="y_Txg5mz7YeZRh-baJeL-305">
          <mxGeometry x="371.75" y="536" width="58.5" height="60" as="geometry" />
        </mxCell>
        <mxCell id="y_Txg5mz7YeZRh-baJeL-282" style="edgeStyle=orthogonalEdgeStyle;rounded=0;orthogonalLoop=1;jettySize=auto;html=1;entryX=0;entryY=0.5;entryDx=0;entryDy=0;exitX=0;exitY=0.5;exitDx=0;exitDy=0;exitPerimeter=0;" edge="1" parent="y_Txg5mz7YeZRh-baJeL-305" source="y_Txg5mz7YeZRh-baJeL-280" target="60e70716793133e9-16">
          <mxGeometry relative="1" as="geometry">
            <mxPoint x="250" y="205" as="targetPoint" />
            <Array as="points">
              <mxPoint x="191" y="565" />
              <mxPoint y="565" />
              <mxPoint y="180" />
            </Array>
          </mxGeometry>
        </mxCell>
        <mxCell id="y_Txg5mz7YeZRh-baJeL-280" value="&lt;font size=&quot;1&quot;&gt;회원 DB&lt;br&gt;정보 수정&lt;/font&gt;" style="shape=cylinder3;whiteSpace=wrap;html=1;boundedLbl=1;backgroundOutline=1;size=7.974358974358893;" vertex="1" parent="y_Txg5mz7YeZRh-baJeL-305">
          <mxGeometry x="190.75" y="536" width="58.5" height="60" as="geometry" />
        </mxCell>
        <mxCell id="y_Txg5mz7YeZRh-baJeL-286" style="edgeStyle=orthogonalEdgeStyle;rounded=0;orthogonalLoop=1;jettySize=auto;html=1;entryX=0.5;entryY=0;entryDx=0;entryDy=0;" edge="1" parent="y_Txg5mz7YeZRh-baJeL-305" source="y_Txg5mz7YeZRh-baJeL-284" target="y_Txg5mz7YeZRh-baJeL-18">
          <mxGeometry relative="1" as="geometry" />
        </mxCell>
        <mxCell id="y_Txg5mz7YeZRh-baJeL-287" value="&lt;font style=&quot;font-size: 8px;&quot;&gt;Yes&lt;/font&gt;" style="edgeLabel;html=1;align=center;verticalAlign=middle;resizable=0;points=[];" vertex="1" connectable="0" parent="y_Txg5mz7YeZRh-baJeL-286">
          <mxGeometry x="0.263" relative="1" as="geometry">
            <mxPoint x="-10" y="-4" as="offset" />
          </mxGeometry>
        </mxCell>
        <mxCell id="y_Txg5mz7YeZRh-baJeL-288" style="edgeStyle=orthogonalEdgeStyle;rounded=0;orthogonalLoop=1;jettySize=auto;html=1;entryX=1;entryY=0.5;entryDx=0;entryDy=0;entryPerimeter=0;" edge="1" parent="y_Txg5mz7YeZRh-baJeL-305" source="y_Txg5mz7YeZRh-baJeL-284" target="y_Txg5mz7YeZRh-baJeL-280">
          <mxGeometry relative="1" as="geometry">
            <Array as="points">
              <mxPoint x="290" y="399" />
              <mxPoint x="290" y="566" />
            </Array>
          </mxGeometry>
        </mxCell>
        <mxCell id="y_Txg5mz7YeZRh-baJeL-289" value="&lt;font style=&quot;font-size: 8px;&quot;&gt;No&lt;/font&gt;" style="edgeLabel;html=1;align=center;verticalAlign=middle;resizable=0;points=[];" vertex="1" connectable="0" parent="y_Txg5mz7YeZRh-baJeL-288">
          <mxGeometry x="-0.5422" relative="1" as="geometry">
            <mxPoint x="-20" y="-42" as="offset" />
          </mxGeometry>
        </mxCell>
        <mxCell id="y_Txg5mz7YeZRh-baJeL-284" value="전화번호 수정" style="rhombus;whiteSpace=wrap;html=1;rounded=0;shadow=1;labelBackgroundColor=none;strokeWidth=1;fontFamily=Verdana;fontSize=8;align=center;container=0;" vertex="1" parent="y_Txg5mz7YeZRh-baJeL-305">
          <mxGeometry x="170" y="368.5" width="100" height="60" as="geometry" />
        </mxCell>
        <mxCell id="y_Txg5mz7YeZRh-baJeL-298" style="edgeStyle=orthogonalEdgeStyle;rounded=0;orthogonalLoop=1;jettySize=auto;html=1;" edge="1" parent="y_Txg5mz7YeZRh-baJeL-305" source="y_Txg5mz7YeZRh-baJeL-291" target="60e70716793133e9-21">
          <mxGeometry relative="1" as="geometry" />
        </mxCell>
        <mxCell id="y_Txg5mz7YeZRh-baJeL-299" value="&lt;font style=&quot;font-size: 8px;&quot;&gt;Yes&lt;/font&gt;" style="edgeLabel;html=1;align=center;verticalAlign=middle;resizable=0;points=[];" vertex="1" connectable="0" parent="y_Txg5mz7YeZRh-baJeL-298">
          <mxGeometry x="0.8585" y="4" relative="1" as="geometry">
            <mxPoint x="-20" y="-19" as="offset" />
          </mxGeometry>
        </mxCell>
        <mxCell id="y_Txg5mz7YeZRh-baJeL-291" value="비밀번호 조건 만족" style="rhombus;whiteSpace=wrap;html=1;rounded=0;shadow=1;labelBackgroundColor=none;strokeWidth=1;fontFamily=Verdana;fontSize=8;align=center;container=0;" vertex="1" parent="y_Txg5mz7YeZRh-baJeL-305">
          <mxGeometry x="350.75" y="368.5" width="100" height="60" as="geometry" />
        </mxCell>
        <mxCell id="y_Txg5mz7YeZRh-baJeL-285" style="edgeStyle=orthogonalEdgeStyle;rounded=0;orthogonalLoop=1;jettySize=auto;html=1;entryX=0.5;entryY=0;entryDx=0;entryDy=0;" edge="1" parent="y_Txg5mz7YeZRh-baJeL-305" source="y_Txg5mz7YeZRh-baJeL-204" target="y_Txg5mz7YeZRh-baJeL-284">
          <mxGeometry relative="1" as="geometry" />
        </mxCell>
        <mxCell id="y_Txg5mz7YeZRh-baJeL-302" style="edgeStyle=orthogonalEdgeStyle;rounded=0;orthogonalLoop=1;jettySize=auto;html=1;entryX=1;entryY=0.5;entryDx=0;entryDy=0;exitX=0.5;exitY=0;exitDx=0;exitDy=0;" edge="1" parent="y_Txg5mz7YeZRh-baJeL-305" source="y_Txg5mz7YeZRh-baJeL-300" target="y_Txg5mz7YeZRh-baJeL-10">
          <mxGeometry relative="1" as="geometry">
            <Array as="points">
              <mxPoint x="541" y="324" />
            </Array>
          </mxGeometry>
        </mxCell>
        <mxCell id="y_Txg5mz7YeZRh-baJeL-300" value="알림&lt;br&gt;비밀번호가 조건에 &lt;br&gt;만족하지 못합니다.&amp;nbsp;&lt;br&gt;다시 변경하십시오." style="rounded=1;whiteSpace=wrap;html=1;shadow=1;labelBackgroundColor=none;strokeWidth=1;fontFamily=Verdana;fontSize=8;align=center;container=0;" vertex="1" parent="y_Txg5mz7YeZRh-baJeL-305">
          <mxGeometry x="490" y="378.5" width="101" height="40" as="geometry" />
        </mxCell>
        <mxCell id="y_Txg5mz7YeZRh-baJeL-301" value="&lt;font style=&quot;font-size: 8px;&quot;&gt;No&lt;/font&gt;" style="edgeStyle=orthogonalEdgeStyle;rounded=0;orthogonalLoop=1;jettySize=auto;html=1;entryX=0;entryY=0.5;entryDx=0;entryDy=0;" edge="1" parent="y_Txg5mz7YeZRh-baJeL-305" source="y_Txg5mz7YeZRh-baJeL-291" target="y_Txg5mz7YeZRh-baJeL-300">
          <mxGeometry x="-1" y="-12" relative="1" as="geometry">
            <mxPoint x="-1" y="-1" as="offset" />
          </mxGeometry>
        </mxCell>
        <mxCell id="y_Txg5mz7YeZRh-baJeL-457" value="" style="group" vertex="1" connectable="0" parent="1">
          <mxGeometry x="4110" y="1819" width="450" height="690" as="geometry" />
        </mxCell>
        <mxCell id="y_Txg5mz7YeZRh-baJeL-124" value="주문내역 화면" style="whiteSpace=wrap;html=1;rounded=0;shadow=1;labelBackgroundColor=none;strokeWidth=1;fontFamily=Verdana;fontSize=8;align=center;container=0;fillColor=#f5f5f5;fontColor=#333333;strokeColor=#666666;" vertex="1" parent="y_Txg5mz7YeZRh-baJeL-457">
          <mxGeometry x="160" width="120" height="40" as="geometry" />
        </mxCell>
        <mxCell id="y_Txg5mz7YeZRh-baJeL-125" style="edgeStyle=orthogonalEdgeStyle;rounded=0;orthogonalLoop=1;jettySize=auto;html=1;entryX=0.25;entryY=0;entryDx=0;entryDy=0;" edge="1" parent="y_Txg5mz7YeZRh-baJeL-457" source="y_Txg5mz7YeZRh-baJeL-126">
          <mxGeometry relative="1" as="geometry">
            <mxPoint x="190" y="200" as="targetPoint" />
          </mxGeometry>
        </mxCell>
        <mxCell id="y_Txg5mz7YeZRh-baJeL-126" value="주문 현황" style="whiteSpace=wrap;html=1;rounded=0;shadow=1;labelBackgroundColor=none;strokeWidth=1;fontFamily=Verdana;fontSize=8;align=center;container=0;" vertex="1" parent="y_Txg5mz7YeZRh-baJeL-457">
          <mxGeometry x="80" y="110" width="120" height="40" as="geometry" />
        </mxCell>
        <mxCell id="y_Txg5mz7YeZRh-baJeL-127" style="edgeStyle=orthogonalEdgeStyle;rounded=0;orthogonalLoop=1;jettySize=auto;html=1;entryX=0.75;entryY=0;entryDx=0;entryDy=0;" edge="1" parent="y_Txg5mz7YeZRh-baJeL-457" source="y_Txg5mz7YeZRh-baJeL-128">
          <mxGeometry relative="1" as="geometry">
            <mxPoint x="250" y="200" as="targetPoint" />
          </mxGeometry>
        </mxCell>
        <mxCell id="y_Txg5mz7YeZRh-baJeL-128" value="지난 주문 내역" style="whiteSpace=wrap;html=1;rounded=0;shadow=1;labelBackgroundColor=none;strokeWidth=1;fontFamily=Verdana;fontSize=8;align=center;container=0;" vertex="1" parent="y_Txg5mz7YeZRh-baJeL-457">
          <mxGeometry x="240" y="110" width="120" height="40" as="geometry" />
        </mxCell>
        <mxCell id="y_Txg5mz7YeZRh-baJeL-129" value="" style="endArrow=classic;html=1;rounded=0;exitX=0.25;exitY=1;exitDx=0;exitDy=0;entryX=0.5;entryY=0;entryDx=0;entryDy=0;" edge="1" parent="y_Txg5mz7YeZRh-baJeL-457" source="y_Txg5mz7YeZRh-baJeL-124" target="y_Txg5mz7YeZRh-baJeL-126">
          <mxGeometry width="50" height="50" relative="1" as="geometry">
            <mxPoint x="150" y="130" as="sourcePoint" />
            <mxPoint x="200" y="80" as="targetPoint" />
            <Array as="points">
              <mxPoint x="190" y="80" />
              <mxPoint x="140" y="80" />
            </Array>
          </mxGeometry>
        </mxCell>
        <mxCell id="y_Txg5mz7YeZRh-baJeL-130" value="" style="endArrow=classic;html=1;rounded=0;exitX=0.75;exitY=1;exitDx=0;exitDy=0;entryX=0.5;entryY=0;entryDx=0;entryDy=0;" edge="1" parent="y_Txg5mz7YeZRh-baJeL-457" source="y_Txg5mz7YeZRh-baJeL-124" target="y_Txg5mz7YeZRh-baJeL-128">
          <mxGeometry width="50" height="50" relative="1" as="geometry">
            <mxPoint x="200" y="50" as="sourcePoint" />
            <mxPoint x="150" y="130" as="targetPoint" />
            <Array as="points">
              <mxPoint x="250" y="80" />
              <mxPoint x="300" y="80" />
            </Array>
          </mxGeometry>
        </mxCell>
        <mxCell id="y_Txg5mz7YeZRh-baJeL-133" value="진행중인 상태" style="rhombus;whiteSpace=wrap;html=1;rounded=0;shadow=1;labelBackgroundColor=none;strokeWidth=1;fontFamily=Verdana;fontSize=8;align=center;container=0;" vertex="1" parent="y_Txg5mz7YeZRh-baJeL-457">
          <mxGeometry x="170" y="278.5" width="100" height="60" as="geometry" />
        </mxCell>
        <mxCell id="y_Txg5mz7YeZRh-baJeL-160" style="edgeStyle=orthogonalEdgeStyle;rounded=0;orthogonalLoop=1;jettySize=auto;html=1;entryX=1;entryY=0;entryDx=0;entryDy=0;exitX=0.75;exitY=1;exitDx=0;exitDy=0;" edge="1" parent="y_Txg5mz7YeZRh-baJeL-457" source="y_Txg5mz7YeZRh-baJeL-155" target="y_Txg5mz7YeZRh-baJeL-133">
          <mxGeometry relative="1" as="geometry" />
        </mxCell>
        <mxCell id="y_Txg5mz7YeZRh-baJeL-155" value="주문 DB" style="whiteSpace=wrap;html=1;rounded=0;shadow=1;labelBackgroundColor=none;strokeWidth=1;fontFamily=Verdana;fontSize=8;align=center;container=0;" vertex="1" parent="y_Txg5mz7YeZRh-baJeL-457">
          <mxGeometry x="160" y="200" width="120" height="40" as="geometry" />
        </mxCell>
        <mxCell id="y_Txg5mz7YeZRh-baJeL-132" style="edgeStyle=orthogonalEdgeStyle;rounded=0;orthogonalLoop=1;jettySize=auto;html=1;entryX=0;entryY=0;entryDx=0;entryDy=0;exitX=0.25;exitY=1;exitDx=0;exitDy=0;" edge="1" parent="y_Txg5mz7YeZRh-baJeL-457" target="y_Txg5mz7YeZRh-baJeL-133" source="y_Txg5mz7YeZRh-baJeL-155">
          <mxGeometry relative="1" as="geometry">
            <mxPoint x="220" y="270" as="sourcePoint" />
          </mxGeometry>
        </mxCell>
        <mxCell id="y_Txg5mz7YeZRh-baJeL-161" value="세탁" style="rhombus;whiteSpace=wrap;html=1;rounded=0;shadow=1;labelBackgroundColor=none;strokeWidth=1;fontFamily=Verdana;fontSize=8;align=center;container=0;" vertex="1" parent="y_Txg5mz7YeZRh-baJeL-457">
          <mxGeometry x="50" y="365" width="100" height="60" as="geometry" />
        </mxCell>
        <mxCell id="y_Txg5mz7YeZRh-baJeL-156" style="edgeStyle=orthogonalEdgeStyle;rounded=0;orthogonalLoop=1;jettySize=auto;html=1;entryX=0.5;entryY=0;entryDx=0;entryDy=0;exitX=0;exitY=0.5;exitDx=0;exitDy=0;" edge="1" parent="y_Txg5mz7YeZRh-baJeL-457" source="y_Txg5mz7YeZRh-baJeL-133" target="y_Txg5mz7YeZRh-baJeL-161">
          <mxGeometry relative="1" as="geometry">
            <mxPoint x="140" y="380" as="targetPoint" />
          </mxGeometry>
        </mxCell>
        <mxCell id="y_Txg5mz7YeZRh-baJeL-157" value="Yes" style="edgeLabel;html=1;align=center;verticalAlign=middle;resizable=0;points=[];fontSize=8;" vertex="1" connectable="0" parent="y_Txg5mz7YeZRh-baJeL-156">
          <mxGeometry x="-0.4344" y="1" relative="1" as="geometry">
            <mxPoint x="18" y="-10" as="offset" />
          </mxGeometry>
        </mxCell>
        <mxCell id="y_Txg5mz7YeZRh-baJeL-162" value="세탁" style="rhombus;whiteSpace=wrap;html=1;rounded=0;shadow=1;labelBackgroundColor=none;strokeWidth=1;fontFamily=Verdana;fontSize=8;align=center;container=0;" vertex="1" parent="y_Txg5mz7YeZRh-baJeL-457">
          <mxGeometry x="300" y="365" width="100" height="60" as="geometry" />
        </mxCell>
        <mxCell id="y_Txg5mz7YeZRh-baJeL-158" style="edgeStyle=orthogonalEdgeStyle;rounded=0;orthogonalLoop=1;jettySize=auto;html=1;entryX=0.5;entryY=0;entryDx=0;entryDy=0;exitX=1;exitY=0.5;exitDx=0;exitDy=0;" edge="1" parent="y_Txg5mz7YeZRh-baJeL-457" source="y_Txg5mz7YeZRh-baJeL-133" target="y_Txg5mz7YeZRh-baJeL-162">
          <mxGeometry relative="1" as="geometry">
            <mxPoint x="300" y="380" as="targetPoint" />
          </mxGeometry>
        </mxCell>
        <mxCell id="y_Txg5mz7YeZRh-baJeL-159" value="&lt;span style=&quot;font-size: 8px;&quot;&gt;No&lt;br&gt;&lt;/span&gt;" style="edgeLabel;html=1;align=center;verticalAlign=middle;resizable=0;points=[];" vertex="1" connectable="0" parent="y_Txg5mz7YeZRh-baJeL-158">
          <mxGeometry x="-0.3689" y="-1" relative="1" as="geometry">
            <mxPoint x="-19" y="-11" as="offset" />
          </mxGeometry>
        </mxCell>
        <mxCell id="y_Txg5mz7YeZRh-baJeL-166" value="진행상태&lt;br&gt;요청날짜&lt;br&gt;세탁 종류&lt;br&gt;옵션&lt;br&gt;기사 이름&lt;br&gt;기사 전화번호&lt;br&gt;세탁 지점 전화번호" style="shape=document;whiteSpace=wrap;html=1;boundedLbl=1;shadow=1;fontSize=8;container=0;size=0.1111111111111111;" vertex="1" parent="y_Txg5mz7YeZRh-baJeL-457">
          <mxGeometry y="440" width="70" height="90" as="geometry" />
        </mxCell>
        <mxCell id="y_Txg5mz7YeZRh-baJeL-171" style="edgeStyle=orthogonalEdgeStyle;rounded=0;orthogonalLoop=1;jettySize=auto;html=1;entryX=0.5;entryY=0;entryDx=0;entryDy=0;exitX=0;exitY=0.5;exitDx=0;exitDy=0;" edge="1" parent="y_Txg5mz7YeZRh-baJeL-457" source="y_Txg5mz7YeZRh-baJeL-161" target="y_Txg5mz7YeZRh-baJeL-166">
          <mxGeometry relative="1" as="geometry">
            <mxPoint x="30" y="395" as="targetPoint" />
            <Array as="points">
              <mxPoint x="35" y="395" />
            </Array>
          </mxGeometry>
        </mxCell>
        <mxCell id="y_Txg5mz7YeZRh-baJeL-176" value="Yes(세탁)" style="edgeLabel;html=1;align=center;verticalAlign=middle;resizable=0;points=[];fontSize=8;" vertex="1" connectable="0" parent="y_Txg5mz7YeZRh-baJeL-171">
          <mxGeometry x="0.1128" y="-1" relative="1" as="geometry">
            <mxPoint y="1" as="offset" />
          </mxGeometry>
        </mxCell>
        <mxCell id="y_Txg5mz7YeZRh-baJeL-167" value="진행상태&lt;br&gt;요청날짜" style="shape=document;whiteSpace=wrap;html=1;boundedLbl=1;shadow=1;fontSize=8;container=0;" vertex="1" parent="y_Txg5mz7YeZRh-baJeL-457">
          <mxGeometry x="130" y="440" width="70" height="70" as="geometry" />
        </mxCell>
        <mxCell id="y_Txg5mz7YeZRh-baJeL-172" style="edgeStyle=orthogonalEdgeStyle;rounded=0;orthogonalLoop=1;jettySize=auto;html=1;entryX=0.5;entryY=0;entryDx=0;entryDy=0;exitX=1;exitY=0.5;exitDx=0;exitDy=0;" edge="1" parent="y_Txg5mz7YeZRh-baJeL-457" source="y_Txg5mz7YeZRh-baJeL-161" target="y_Txg5mz7YeZRh-baJeL-167">
          <mxGeometry relative="1" as="geometry">
            <mxPoint x="170" y="395" as="targetPoint" />
            <Array as="points">
              <mxPoint x="165" y="395" />
            </Array>
          </mxGeometry>
        </mxCell>
        <mxCell id="y_Txg5mz7YeZRh-baJeL-178" value="No(헌옷수거)" style="edgeLabel;html=1;align=center;verticalAlign=middle;resizable=0;points=[];fontSize=8;" vertex="1" connectable="0" parent="y_Txg5mz7YeZRh-baJeL-172">
          <mxGeometry x="0.0103" y="-1" relative="1" as="geometry">
            <mxPoint x="1" y="5" as="offset" />
          </mxGeometry>
        </mxCell>
        <mxCell id="y_Txg5mz7YeZRh-baJeL-169" value="요청 날짜&lt;br&gt;완료 날짜&lt;br&gt;적립 포인트" style="shape=document;whiteSpace=wrap;html=1;boundedLbl=1;shadow=1;fontSize=8;container=0;" vertex="1" parent="y_Txg5mz7YeZRh-baJeL-457">
          <mxGeometry x="380" y="440" width="70" height="70" as="geometry" />
        </mxCell>
        <mxCell id="y_Txg5mz7YeZRh-baJeL-173" style="edgeStyle=orthogonalEdgeStyle;rounded=0;orthogonalLoop=1;jettySize=auto;html=1;entryX=0.5;entryY=0;entryDx=0;entryDy=0;exitX=0;exitY=0.5;exitDx=0;exitDy=0;" edge="1" parent="y_Txg5mz7YeZRh-baJeL-457" source="y_Txg5mz7YeZRh-baJeL-162" target="y_Txg5mz7YeZRh-baJeL-377">
          <mxGeometry relative="1" as="geometry">
            <mxPoint x="285" y="440" as="targetPoint" />
            <mxPoint x="300" y="395" as="sourcePoint" />
            <Array as="points">
              <mxPoint x="285" y="395" />
            </Array>
          </mxGeometry>
        </mxCell>
        <mxCell id="y_Txg5mz7YeZRh-baJeL-177" value="Yes(세탁)" style="edgeLabel;html=1;align=center;verticalAlign=middle;resizable=0;points=[];fontSize=8;" vertex="1" connectable="0" parent="y_Txg5mz7YeZRh-baJeL-173">
          <mxGeometry x="0.1641" y="-2" relative="1" as="geometry">
            <mxPoint as="offset" />
          </mxGeometry>
        </mxCell>
        <mxCell id="y_Txg5mz7YeZRh-baJeL-174" style="edgeStyle=orthogonalEdgeStyle;rounded=0;orthogonalLoop=1;jettySize=auto;html=1;exitX=1;exitY=0.5;exitDx=0;exitDy=0;" edge="1" parent="y_Txg5mz7YeZRh-baJeL-457" source="y_Txg5mz7YeZRh-baJeL-162" target="y_Txg5mz7YeZRh-baJeL-169">
          <mxGeometry relative="1" as="geometry">
            <mxPoint x="415" y="440" as="targetPoint" />
            <mxPoint x="400" y="395" as="sourcePoint" />
            <Array as="points">
              <mxPoint x="415" y="395" />
            </Array>
          </mxGeometry>
        </mxCell>
        <mxCell id="y_Txg5mz7YeZRh-baJeL-179" value="No(헌옷수거)" style="edgeLabel;html=1;align=center;verticalAlign=middle;resizable=0;points=[];fontSize=8;" vertex="1" connectable="0" parent="y_Txg5mz7YeZRh-baJeL-174">
          <mxGeometry x="0.1897" y="-1" relative="1" as="geometry">
            <mxPoint y="-1" as="offset" />
          </mxGeometry>
        </mxCell>
        <mxCell id="y_Txg5mz7YeZRh-baJeL-377" value="요청 날짜&lt;br&gt;완료 날짜&lt;br&gt;세탁 종류&lt;br&gt;옵션" style="shape=document;whiteSpace=wrap;html=1;boundedLbl=1;shadow=1;fontSize=8;container=0;size=0.1111111111111111;" vertex="1" parent="y_Txg5mz7YeZRh-baJeL-457">
          <mxGeometry x="250" y="440" width="70" height="90" as="geometry" />
        </mxCell>
        <mxCell id="y_Txg5mz7YeZRh-baJeL-400" value="리뷰 작성&lt;br&gt;할 것인가?" style="rhombus;whiteSpace=wrap;html=1;rounded=0;shadow=1;labelBackgroundColor=none;strokeWidth=1;fontFamily=Verdana;fontSize=8;align=center;container=0;" vertex="1" parent="y_Txg5mz7YeZRh-baJeL-457">
          <mxGeometry x="300" y="560" width="100" height="60" as="geometry" />
        </mxCell>
        <mxCell id="y_Txg5mz7YeZRh-baJeL-402" style="edgeStyle=orthogonalEdgeStyle;rounded=0;orthogonalLoop=1;jettySize=auto;html=1;entryX=1;entryY=0;entryDx=0;entryDy=0;" edge="1" parent="y_Txg5mz7YeZRh-baJeL-457" source="y_Txg5mz7YeZRh-baJeL-169" target="y_Txg5mz7YeZRh-baJeL-400">
          <mxGeometry relative="1" as="geometry">
            <Array as="points">
              <mxPoint x="415" y="550" />
              <mxPoint x="375" y="550" />
            </Array>
          </mxGeometry>
        </mxCell>
        <mxCell id="y_Txg5mz7YeZRh-baJeL-401" style="edgeStyle=orthogonalEdgeStyle;rounded=0;orthogonalLoop=1;jettySize=auto;html=1;entryX=0;entryY=0;entryDx=0;entryDy=0;" edge="1" parent="y_Txg5mz7YeZRh-baJeL-457" source="y_Txg5mz7YeZRh-baJeL-377" target="y_Txg5mz7YeZRh-baJeL-400">
          <mxGeometry relative="1" as="geometry" />
        </mxCell>
        <mxCell id="y_Txg5mz7YeZRh-baJeL-403" value="리뷰 화면" style="whiteSpace=wrap;html=1;rounded=0;shadow=1;labelBackgroundColor=none;strokeWidth=1;fontFamily=Verdana;fontSize=8;align=center;container=0;fillColor=#f5f5f5;fontColor=#333333;strokeColor=#666666;" vertex="1" parent="y_Txg5mz7YeZRh-baJeL-457">
          <mxGeometry x="290" y="650" width="120" height="40" as="geometry" />
        </mxCell>
        <mxCell id="y_Txg5mz7YeZRh-baJeL-404" style="edgeStyle=orthogonalEdgeStyle;rounded=0;orthogonalLoop=1;jettySize=auto;html=1;entryX=0.5;entryY=0;entryDx=0;entryDy=0;" edge="1" parent="y_Txg5mz7YeZRh-baJeL-457" source="y_Txg5mz7YeZRh-baJeL-400" target="y_Txg5mz7YeZRh-baJeL-403">
          <mxGeometry relative="1" as="geometry" />
        </mxCell>
        <mxCell id="y_Txg5mz7YeZRh-baJeL-405" value="&lt;span style=&quot;font-size: 8px;&quot;&gt;Yes&lt;/span&gt;" style="edgeLabel;html=1;align=center;verticalAlign=middle;resizable=0;points=[];" vertex="1" connectable="0" parent="y_Txg5mz7YeZRh-baJeL-404">
          <mxGeometry x="-0.7062" relative="1" as="geometry">
            <mxPoint x="10" as="offset" />
          </mxGeometry>
        </mxCell>
        <mxCell id="y_Txg5mz7YeZRh-baJeL-463" value="" style="group" vertex="1" connectable="0" parent="1">
          <mxGeometry x="3440" y="1819" width="470" height="901" as="geometry" />
        </mxCell>
        <mxCell id="y_Txg5mz7YeZRh-baJeL-461" value="주문 현황" style="whiteSpace=wrap;html=1;rounded=0;shadow=1;labelBackgroundColor=none;strokeWidth=1;fontFamily=Verdana;fontSize=8;align=center;container=0;" vertex="1" parent="y_Txg5mz7YeZRh-baJeL-463">
          <mxGeometry x="230" y="861" width="120" height="40" as="geometry" />
        </mxCell>
        <mxCell id="y_Txg5mz7YeZRh-baJeL-34" value="메인화면" style="whiteSpace=wrap;html=1;rounded=0;shadow=1;labelBackgroundColor=default;strokeWidth=1;fontFamily=Verdana;fontSize=8;align=center;container=0;fillColor=#f5f5f5;fontColor=#333333;strokeColor=#666666;" vertex="1" parent="y_Txg5mz7YeZRh-baJeL-463">
          <mxGeometry x="230" width="120" height="40" as="geometry" />
        </mxCell>
        <mxCell id="y_Txg5mz7YeZRh-baJeL-37" value="세탁 신청" style="whiteSpace=wrap;html=1;rounded=0;shadow=1;labelBackgroundColor=none;strokeWidth=1;fontFamily=Verdana;fontSize=8;align=center;container=0;" vertex="1" parent="y_Txg5mz7YeZRh-baJeL-463">
          <mxGeometry x="150" y="120" width="120" height="40" as="geometry" />
        </mxCell>
        <mxCell id="y_Txg5mz7YeZRh-baJeL-38" value="헌옷 수거 신청" style="whiteSpace=wrap;html=1;rounded=0;shadow=1;labelBackgroundColor=none;strokeWidth=1;fontFamily=Verdana;fontSize=8;align=center;container=0;" vertex="1" parent="y_Txg5mz7YeZRh-baJeL-463">
          <mxGeometry x="310" y="120" width="120" height="40" as="geometry" />
        </mxCell>
        <mxCell id="y_Txg5mz7YeZRh-baJeL-39" value="" style="endArrow=classic;html=1;rounded=0;exitX=0.25;exitY=1;exitDx=0;exitDy=0;entryX=0.5;entryY=0;entryDx=0;entryDy=0;" edge="1" parent="y_Txg5mz7YeZRh-baJeL-463" source="y_Txg5mz7YeZRh-baJeL-34" target="y_Txg5mz7YeZRh-baJeL-37">
          <mxGeometry width="50" height="50" relative="1" as="geometry">
            <mxPoint x="220" y="130" as="sourcePoint" />
            <mxPoint x="270" y="80" as="targetPoint" />
            <Array as="points">
              <mxPoint x="260" y="80" />
              <mxPoint x="210" y="80" />
            </Array>
          </mxGeometry>
        </mxCell>
        <mxCell id="y_Txg5mz7YeZRh-baJeL-41" value="" style="endArrow=classic;html=1;rounded=0;exitX=0.75;exitY=1;exitDx=0;exitDy=0;entryX=0.5;entryY=0;entryDx=0;entryDy=0;" edge="1" parent="y_Txg5mz7YeZRh-baJeL-463" source="y_Txg5mz7YeZRh-baJeL-34" target="y_Txg5mz7YeZRh-baJeL-38">
          <mxGeometry width="50" height="50" relative="1" as="geometry">
            <mxPoint x="270" y="50" as="sourcePoint" />
            <mxPoint x="220" y="130" as="targetPoint" />
            <Array as="points">
              <mxPoint x="320" y="80" />
              <mxPoint x="370" y="80" />
            </Array>
          </mxGeometry>
        </mxCell>
        <mxCell id="y_Txg5mz7YeZRh-baJeL-235" value="로그인 여부" style="rhombus;whiteSpace=wrap;html=1;rounded=0;shadow=1;labelBackgroundColor=none;strokeWidth=1;fontFamily=Verdana;fontSize=8;align=center;container=0;" vertex="1" parent="y_Txg5mz7YeZRh-baJeL-463">
          <mxGeometry x="160" y="200" width="100" height="60" as="geometry" />
        </mxCell>
        <mxCell id="y_Txg5mz7YeZRh-baJeL-236" style="edgeStyle=orthogonalEdgeStyle;rounded=0;orthogonalLoop=1;jettySize=auto;html=1;entryX=0.5;entryY=0;entryDx=0;entryDy=0;" edge="1" parent="y_Txg5mz7YeZRh-baJeL-463" source="y_Txg5mz7YeZRh-baJeL-37" target="y_Txg5mz7YeZRh-baJeL-235">
          <mxGeometry relative="1" as="geometry" />
        </mxCell>
        <mxCell id="y_Txg5mz7YeZRh-baJeL-262" value="알림&lt;br&gt;로그인 해야합니다." style="rounded=1;whiteSpace=wrap;html=1;shadow=1;labelBackgroundColor=none;strokeWidth=1;fontFamily=Verdana;fontSize=8;align=center;container=0;" vertex="1" parent="y_Txg5mz7YeZRh-baJeL-463">
          <mxGeometry x="20" y="210" width="100" height="40" as="geometry" />
        </mxCell>
        <mxCell id="y_Txg5mz7YeZRh-baJeL-263" value="&lt;font style=&quot;font-size: 8px;&quot;&gt;No&lt;/font&gt;" style="edgeStyle=orthogonalEdgeStyle;rounded=0;orthogonalLoop=1;jettySize=auto;html=1;entryX=1;entryY=0.5;entryDx=0;entryDy=0;" edge="1" parent="y_Txg5mz7YeZRh-baJeL-463" source="y_Txg5mz7YeZRh-baJeL-235" target="y_Txg5mz7YeZRh-baJeL-262">
          <mxGeometry x="-1" y="10" relative="1" as="geometry">
            <mxPoint as="offset" />
          </mxGeometry>
        </mxCell>
        <mxCell id="y_Txg5mz7YeZRh-baJeL-76" style="edgeStyle=orthogonalEdgeStyle;rounded=0;orthogonalLoop=1;jettySize=auto;html=1;dashed=1;dashPattern=1 1;endArrow=none;endFill=0;strokeWidth=2;exitX=1;exitY=0.5;exitDx=0;exitDy=0;" edge="1" parent="y_Txg5mz7YeZRh-baJeL-463">
          <mxGeometry relative="1" as="geometry">
            <mxPoint x="401" y="350" as="targetPoint" />
            <mxPoint x="350" y="350" as="sourcePoint" />
          </mxGeometry>
        </mxCell>
        <mxCell id="y_Txg5mz7YeZRh-baJeL-78" style="edgeStyle=orthogonalEdgeStyle;rounded=0;orthogonalLoop=1;jettySize=auto;html=1;entryX=0.5;entryY=0;entryDx=0;entryDy=0;" edge="1" parent="y_Txg5mz7YeZRh-baJeL-463" target="y_Txg5mz7YeZRh-baJeL-50">
          <mxGeometry relative="1" as="geometry">
            <mxPoint x="290" y="385" as="sourcePoint" />
          </mxGeometry>
        </mxCell>
        <mxCell id="y_Txg5mz7YeZRh-baJeL-50" value="주소 서울인가" style="rhombus;whiteSpace=wrap;html=1;rounded=0;shadow=1;labelBackgroundColor=none;strokeWidth=1;fontFamily=Verdana;fontSize=8;align=center;container=0;" vertex="1" parent="y_Txg5mz7YeZRh-baJeL-463">
          <mxGeometry x="240" y="507" width="100" height="60" as="geometry" />
        </mxCell>
        <mxCell id="y_Txg5mz7YeZRh-baJeL-56" value="" style="edgeStyle=orthogonalEdgeStyle;rounded=0;html=1;labelBackgroundColor=none;startSize=5;endArrow=classicThin;endFill=1;endSize=5;jettySize=auto;orthogonalLoop=1;strokeWidth=1;fontFamily=Verdana;fontSize=8;entryX=0.5;entryY=0;entryDx=0;entryDy=0;exitX=0;exitY=1;exitDx=0;exitDy=0;" edge="1" parent="y_Txg5mz7YeZRh-baJeL-463" source="y_Txg5mz7YeZRh-baJeL-50" target="y_Txg5mz7YeZRh-baJeL-222">
          <mxGeometry x="-0.7172" y="27" relative="1" as="geometry">
            <mxPoint x="25" y="-17" as="offset" />
            <mxPoint x="290" y="551" as="sourcePoint" />
            <mxPoint x="210" y="571" as="targetPoint" />
            <Array as="points">
              <mxPoint x="265" y="571" />
              <mxPoint x="210" y="571" />
            </Array>
          </mxGeometry>
        </mxCell>
        <mxCell id="y_Txg5mz7YeZRh-baJeL-62" style="edgeStyle=orthogonalEdgeStyle;rounded=0;orthogonalLoop=1;jettySize=auto;html=1;exitX=0;exitY=0.5;exitDx=0;exitDy=0;" edge="1" parent="y_Txg5mz7YeZRh-baJeL-463" source="y_Txg5mz7YeZRh-baJeL-61">
          <mxGeometry relative="1" as="geometry">
            <mxPoint x="90" y="345" as="targetPoint" />
            <Array as="points">
              <mxPoint x="60" y="537" />
              <mxPoint x="60" y="345" />
            </Array>
          </mxGeometry>
        </mxCell>
        <mxCell id="y_Txg5mz7YeZRh-baJeL-61" value="알림&lt;br&gt;서울 이외의 지역은 서비스&lt;br&gt;준비중입니다.&amp;nbsp;" style="rounded=1;whiteSpace=wrap;html=1;shadow=1;labelBackgroundColor=none;strokeWidth=1;fontFamily=Verdana;fontSize=8;align=center;container=0;" vertex="1" parent="y_Txg5mz7YeZRh-baJeL-463">
          <mxGeometry x="100" y="517" width="100" height="40" as="geometry" />
        </mxCell>
        <mxCell id="y_Txg5mz7YeZRh-baJeL-216" style="edgeStyle=orthogonalEdgeStyle;rounded=0;orthogonalLoop=1;jettySize=auto;html=1;entryX=1;entryY=0.5;entryDx=0;entryDy=0;" edge="1" parent="y_Txg5mz7YeZRh-baJeL-463" source="y_Txg5mz7YeZRh-baJeL-50" target="y_Txg5mz7YeZRh-baJeL-61">
          <mxGeometry relative="1" as="geometry" />
        </mxCell>
        <mxCell id="y_Txg5mz7YeZRh-baJeL-217" value="&lt;font style=&quot;font-size: 8px;&quot;&gt;No&lt;/font&gt;" style="edgeLabel;html=1;align=center;verticalAlign=middle;resizable=0;points=[];" vertex="1" connectable="0" parent="y_Txg5mz7YeZRh-baJeL-216">
          <mxGeometry x="-0.38" relative="1" as="geometry">
            <mxPoint x="10" y="-12" as="offset" />
          </mxGeometry>
        </mxCell>
        <mxCell id="y_Txg5mz7YeZRh-baJeL-64" value="내용" style="swimlane;fontStyle=0;childLayout=stackLayout;horizontal=1;startSize=30;horizontalStack=0;resizeParent=1;resizeParentMax=0;resizeLast=0;collapsible=1;marginBottom=0;whiteSpace=wrap;html=1;fontSize=8;" vertex="1" parent="y_Txg5mz7YeZRh-baJeL-463">
          <mxGeometry x="400" y="290" width="70" height="120" as="geometry" />
        </mxCell>
        <mxCell id="y_Txg5mz7YeZRh-baJeL-65" value="의류 개수" style="text;strokeColor=none;fillColor=none;align=left;verticalAlign=middle;spacingLeft=4;spacingRight=4;overflow=hidden;points=[[0,0.5],[1,0.5]];portConstraint=eastwest;rotatable=0;whiteSpace=wrap;html=1;fontSize=8;" vertex="1" parent="y_Txg5mz7YeZRh-baJeL-64">
          <mxGeometry y="30" width="70" height="30" as="geometry" />
        </mxCell>
        <mxCell id="y_Txg5mz7YeZRh-baJeL-66" value="요청 날짜" style="text;strokeColor=none;fillColor=none;align=left;verticalAlign=middle;spacingLeft=4;spacingRight=4;overflow=hidden;points=[[0,0.5],[1,0.5]];portConstraint=eastwest;rotatable=0;whiteSpace=wrap;html=1;fontSize=8;" vertex="1" parent="y_Txg5mz7YeZRh-baJeL-64">
          <mxGeometry y="60" width="70" height="30" as="geometry" />
        </mxCell>
        <mxCell id="y_Txg5mz7YeZRh-baJeL-67" value="주소" style="text;strokeColor=none;fillColor=none;align=left;verticalAlign=middle;spacingLeft=4;spacingRight=4;overflow=hidden;points=[[0,0.5],[1,0.5]];portConstraint=eastwest;rotatable=0;whiteSpace=wrap;html=1;fontSize=8;" vertex="1" parent="y_Txg5mz7YeZRh-baJeL-64">
          <mxGeometry y="90" width="70" height="30" as="geometry" />
        </mxCell>
        <mxCell id="y_Txg5mz7YeZRh-baJeL-68" value="내용" style="swimlane;fontStyle=0;childLayout=stackLayout;horizontal=1;startSize=30;horizontalStack=0;resizeParent=1;resizeParentMax=0;resizeLast=0;collapsible=1;marginBottom=0;whiteSpace=wrap;html=1;fontSize=8;" vertex="1" parent="y_Txg5mz7YeZRh-baJeL-463">
          <mxGeometry x="109" y="260" width="70" height="240" as="geometry" />
        </mxCell>
        <mxCell id="y_Txg5mz7YeZRh-baJeL-69" value="세탁 종류" style="text;strokeColor=none;fillColor=none;align=left;verticalAlign=middle;spacingLeft=4;spacingRight=4;overflow=hidden;points=[[0,0.5],[1,0.5]];portConstraint=eastwest;rotatable=0;whiteSpace=wrap;html=1;fontSize=8;" vertex="1" parent="y_Txg5mz7YeZRh-baJeL-68">
          <mxGeometry y="30" width="70" height="30" as="geometry" />
        </mxCell>
        <mxCell id="y_Txg5mz7YeZRh-baJeL-339" value="옵션" style="text;strokeColor=none;fillColor=none;align=left;verticalAlign=middle;spacingLeft=4;spacingRight=4;overflow=hidden;points=[[0,0.5],[1,0.5]];portConstraint=eastwest;rotatable=0;whiteSpace=wrap;html=1;fontSize=8;" vertex="1" parent="y_Txg5mz7YeZRh-baJeL-68">
          <mxGeometry y="60" width="70" height="30" as="geometry" />
        </mxCell>
        <mxCell id="y_Txg5mz7YeZRh-baJeL-70" value="요청 날짜" style="text;strokeColor=none;fillColor=none;align=left;verticalAlign=middle;spacingLeft=4;spacingRight=4;overflow=hidden;points=[[0,0.5],[1,0.5]];portConstraint=eastwest;rotatable=0;whiteSpace=wrap;html=1;fontSize=8;" vertex="1" parent="y_Txg5mz7YeZRh-baJeL-68">
          <mxGeometry y="90" width="70" height="30" as="geometry" />
        </mxCell>
        <mxCell id="y_Txg5mz7YeZRh-baJeL-72" value="주소(선택 / &amp;nbsp;작성)" style="text;strokeColor=none;fillColor=none;align=left;verticalAlign=middle;spacingLeft=4;spacingRight=4;overflow=hidden;points=[[0,0.5],[1,0.5]];portConstraint=eastwest;rotatable=0;whiteSpace=wrap;html=1;fontSize=8;" vertex="1" parent="y_Txg5mz7YeZRh-baJeL-68">
          <mxGeometry y="120" width="70" height="30" as="geometry" />
        </mxCell>
        <mxCell id="y_Txg5mz7YeZRh-baJeL-338" value="배송 주소" style="text;strokeColor=none;fillColor=none;align=left;verticalAlign=middle;spacingLeft=4;spacingRight=4;overflow=hidden;points=[[0,0.5],[1,0.5]];portConstraint=eastwest;rotatable=0;whiteSpace=wrap;html=1;fontSize=8;" vertex="1" parent="y_Txg5mz7YeZRh-baJeL-68">
          <mxGeometry y="150" width="70" height="30" as="geometry" />
        </mxCell>
        <mxCell id="y_Txg5mz7YeZRh-baJeL-203" value="사진" style="text;strokeColor=none;fillColor=none;align=left;verticalAlign=middle;spacingLeft=4;spacingRight=4;overflow=hidden;points=[[0,0.5],[1,0.5]];portConstraint=eastwest;rotatable=0;whiteSpace=wrap;html=1;fontSize=8;" vertex="1" parent="y_Txg5mz7YeZRh-baJeL-68">
          <mxGeometry y="180" width="70" height="30" as="geometry" />
        </mxCell>
        <mxCell id="y_Txg5mz7YeZRh-baJeL-79" value="금액" style="text;strokeColor=none;fillColor=none;align=left;verticalAlign=middle;spacingLeft=4;spacingRight=4;overflow=hidden;points=[[0,0.5],[1,0.5]];portConstraint=eastwest;rotatable=0;whiteSpace=wrap;html=1;fontSize=8;" vertex="1" parent="y_Txg5mz7YeZRh-baJeL-68">
          <mxGeometry y="210" width="70" height="30" as="geometry" />
        </mxCell>
        <mxCell id="y_Txg5mz7YeZRh-baJeL-77" style="edgeStyle=orthogonalEdgeStyle;rounded=0;orthogonalLoop=1;jettySize=auto;html=1;dashed=1;dashPattern=1 1;endArrow=none;endFill=0;strokeWidth=2;exitX=1;exitY=0.5;exitDx=0;exitDy=0;" edge="1" parent="y_Txg5mz7YeZRh-baJeL-463">
          <mxGeometry relative="1" as="geometry">
            <mxPoint x="230" y="349.7600000000002" as="targetPoint" />
            <mxPoint x="179" y="349.7600000000002" as="sourcePoint" />
          </mxGeometry>
        </mxCell>
        <mxCell id="y_Txg5mz7YeZRh-baJeL-462" style="edgeStyle=orthogonalEdgeStyle;rounded=0;orthogonalLoop=1;jettySize=auto;html=1;entryX=0.5;entryY=0;entryDx=0;entryDy=0;" edge="1" parent="y_Txg5mz7YeZRh-baJeL-463" source="y_Txg5mz7YeZRh-baJeL-82" target="y_Txg5mz7YeZRh-baJeL-461">
          <mxGeometry relative="1" as="geometry" />
        </mxCell>
        <mxCell id="y_Txg5mz7YeZRh-baJeL-82" value="주문 DB 저장" style="whiteSpace=wrap;html=1;rounded=0;shadow=1;labelBackgroundColor=none;strokeWidth=1;fontFamily=Verdana;fontSize=8;align=center;container=0;" vertex="1" parent="y_Txg5mz7YeZRh-baJeL-463">
          <mxGeometry x="230" y="781" width="120" height="40" as="geometry" />
        </mxCell>
        <mxCell id="y_Txg5mz7YeZRh-baJeL-85" style="edgeStyle=orthogonalEdgeStyle;rounded=0;orthogonalLoop=1;jettySize=auto;html=1;entryX=0.707;entryY=0.014;entryDx=0;entryDy=0;exitX=1;exitY=1;exitDx=0;exitDy=0;entryPerimeter=0;" edge="1" parent="y_Txg5mz7YeZRh-baJeL-463" source="y_Txg5mz7YeZRh-baJeL-50" target="y_Txg5mz7YeZRh-baJeL-82">
          <mxGeometry relative="1" as="geometry">
            <mxPoint x="315" y="651" as="sourcePoint" />
          </mxGeometry>
        </mxCell>
        <mxCell id="y_Txg5mz7YeZRh-baJeL-225" value="&lt;span style=&quot;font-size: 8px;&quot;&gt;Yes&lt;br&gt;&lt;/span&gt;" style="edgeLabel;html=1;align=center;verticalAlign=middle;resizable=0;points=[];" vertex="1" connectable="0" parent="y_Txg5mz7YeZRh-baJeL-85">
          <mxGeometry x="-0.7623" relative="1" as="geometry">
            <mxPoint x="-25" y="-3" as="offset" />
          </mxGeometry>
        </mxCell>
        <mxCell id="y_Txg5mz7YeZRh-baJeL-88" value="&lt;font style=&quot;font-size: 8px;&quot;&gt;신청 작성 화면&lt;/font&gt;" style="shape=parallelogram;perimeter=parallelogramPerimeter;whiteSpace=wrap;html=1;fixedSize=1;shadow=1;rounded=0;" vertex="1" parent="y_Txg5mz7YeZRh-baJeL-463">
          <mxGeometry x="230" y="325" width="120" height="50" as="geometry" />
        </mxCell>
        <mxCell id="y_Txg5mz7YeZRh-baJeL-73" style="edgeStyle=orthogonalEdgeStyle;rounded=0;orthogonalLoop=1;jettySize=auto;html=1;entryX=0.75;entryY=0;entryDx=0;entryDy=0;" edge="1" parent="y_Txg5mz7YeZRh-baJeL-463" source="y_Txg5mz7YeZRh-baJeL-38" target="y_Txg5mz7YeZRh-baJeL-88">
          <mxGeometry relative="1" as="geometry">
            <mxPoint x="320" y="320" as="targetPoint" />
            <Array as="points">
              <mxPoint x="370" y="240" />
              <mxPoint x="320" y="240" />
            </Array>
          </mxGeometry>
        </mxCell>
        <mxCell id="y_Txg5mz7YeZRh-baJeL-222" value="승인여부" style="rhombus;whiteSpace=wrap;html=1;rounded=0;shadow=1;labelBackgroundColor=none;strokeWidth=1;fontFamily=Verdana;fontSize=8;align=center;container=0;" vertex="1" parent="y_Txg5mz7YeZRh-baJeL-463">
          <mxGeometry x="160" y="586" width="100" height="60" as="geometry" />
        </mxCell>
        <mxCell id="y_Txg5mz7YeZRh-baJeL-232" style="edgeStyle=orthogonalEdgeStyle;rounded=0;orthogonalLoop=1;jettySize=auto;html=1;endArrow=none;endFill=0;" edge="1" parent="y_Txg5mz7YeZRh-baJeL-463" source="y_Txg5mz7YeZRh-baJeL-228">
          <mxGeometry relative="1" as="geometry">
            <mxPoint x="60" y="495" as="targetPoint" />
          </mxGeometry>
        </mxCell>
        <mxCell id="y_Txg5mz7YeZRh-baJeL-228" value="알림&lt;br&gt;세탁 신청이 승인되지 않았습니다.&lt;br&gt;다시 신청을 진행해주세요&lt;br&gt;사유 : ?????" style="rounded=1;whiteSpace=wrap;html=1;shadow=1;labelBackgroundColor=none;strokeWidth=1;fontFamily=Verdana;fontSize=8;align=center;container=0;" vertex="1" parent="y_Txg5mz7YeZRh-baJeL-463">
          <mxGeometry y="591" width="120" height="50" as="geometry" />
        </mxCell>
        <mxCell id="y_Txg5mz7YeZRh-baJeL-229" style="edgeStyle=orthogonalEdgeStyle;rounded=0;orthogonalLoop=1;jettySize=auto;html=1;entryX=1;entryY=0.5;entryDx=0;entryDy=0;" edge="1" parent="y_Txg5mz7YeZRh-baJeL-463" source="y_Txg5mz7YeZRh-baJeL-222" target="y_Txg5mz7YeZRh-baJeL-228">
          <mxGeometry relative="1" as="geometry" />
        </mxCell>
        <mxCell id="y_Txg5mz7YeZRh-baJeL-230" value="&lt;font style=&quot;font-size: 8px;&quot;&gt;No&lt;/font&gt;" style="edgeLabel;html=1;align=center;verticalAlign=middle;resizable=0;points=[];" vertex="1" connectable="0" parent="y_Txg5mz7YeZRh-baJeL-229">
          <mxGeometry x="-0.6262" y="-1" relative="1" as="geometry">
            <mxPoint x="4" y="8" as="offset" />
          </mxGeometry>
        </mxCell>
        <mxCell id="y_Txg5mz7YeZRh-baJeL-264" style="edgeStyle=orthogonalEdgeStyle;rounded=0;orthogonalLoop=1;jettySize=auto;html=1;entryX=0.25;entryY=0;entryDx=0;entryDy=0;" edge="1" parent="y_Txg5mz7YeZRh-baJeL-463" source="y_Txg5mz7YeZRh-baJeL-235" target="y_Txg5mz7YeZRh-baJeL-88">
          <mxGeometry relative="1" as="geometry" />
        </mxCell>
        <mxCell id="y_Txg5mz7YeZRh-baJeL-265" value="&lt;span style=&quot;font-size: 8px;&quot;&gt;Yes&lt;/span&gt;" style="edgeLabel;html=1;align=center;verticalAlign=middle;resizable=0;points=[];" vertex="1" connectable="0" parent="y_Txg5mz7YeZRh-baJeL-264">
          <mxGeometry x="0.1962" y="2" relative="1" as="geometry">
            <mxPoint x="-27" y="-21" as="offset" />
          </mxGeometry>
        </mxCell>
        <mxCell id="y_Txg5mz7YeZRh-baJeL-449" style="edgeStyle=orthogonalEdgeStyle;rounded=0;orthogonalLoop=1;jettySize=auto;html=1;entryX=0.25;entryY=0;entryDx=0;entryDy=0;" edge="1" parent="y_Txg5mz7YeZRh-baJeL-463" source="y_Txg5mz7YeZRh-baJeL-447" target="y_Txg5mz7YeZRh-baJeL-82">
          <mxGeometry relative="1" as="geometry">
            <Array as="points">
              <mxPoint x="210" y="761" />
              <mxPoint x="260" y="761" />
            </Array>
          </mxGeometry>
        </mxCell>
        <mxCell id="y_Txg5mz7YeZRh-baJeL-450" value="&lt;font style=&quot;font-size: 8px;&quot;&gt;Yes&lt;/font&gt;" style="edgeLabel;html=1;align=center;verticalAlign=middle;resizable=0;points=[];" vertex="1" connectable="0" parent="y_Txg5mz7YeZRh-baJeL-449">
          <mxGeometry x="0.1398" y="-2" relative="1" as="geometry">
            <mxPoint x="-17" y="-22" as="offset" />
          </mxGeometry>
        </mxCell>
        <mxCell id="y_Txg5mz7YeZRh-baJeL-447" value="자동결제" style="rhombus;whiteSpace=wrap;html=1;rounded=0;shadow=1;labelBackgroundColor=none;strokeWidth=1;fontFamily=Verdana;fontSize=8;align=center;container=0;" vertex="1" parent="y_Txg5mz7YeZRh-baJeL-463">
          <mxGeometry x="160" y="671" width="100" height="60" as="geometry" />
        </mxCell>
        <mxCell id="y_Txg5mz7YeZRh-baJeL-448" style="edgeStyle=orthogonalEdgeStyle;rounded=0;orthogonalLoop=1;jettySize=auto;html=1;entryX=0.5;entryY=0;entryDx=0;entryDy=0;" edge="1" parent="y_Txg5mz7YeZRh-baJeL-463" source="y_Txg5mz7YeZRh-baJeL-222" target="y_Txg5mz7YeZRh-baJeL-447">
          <mxGeometry relative="1" as="geometry" />
        </mxCell>
        <mxCell id="y_Txg5mz7YeZRh-baJeL-455" value="&lt;font style=&quot;font-size: 8px;&quot;&gt;Yes&lt;/font&gt;" style="edgeLabel;html=1;align=center;verticalAlign=middle;resizable=0;points=[];" vertex="1" connectable="0" parent="y_Txg5mz7YeZRh-baJeL-448">
          <mxGeometry x="0.3818" relative="1" as="geometry">
            <mxPoint x="10" y="-3" as="offset" />
          </mxGeometry>
        </mxCell>
        <mxCell id="y_Txg5mz7YeZRh-baJeL-454" style="edgeStyle=orthogonalEdgeStyle;rounded=0;orthogonalLoop=1;jettySize=auto;html=1;entryX=0.25;entryY=0;entryDx=0;entryDy=0;exitX=0.5;exitY=1;exitDx=0;exitDy=0;" edge="1" parent="y_Txg5mz7YeZRh-baJeL-463" source="y_Txg5mz7YeZRh-baJeL-451" target="y_Txg5mz7YeZRh-baJeL-82">
          <mxGeometry relative="1" as="geometry">
            <mxPoint x="130" y="771" as="targetPoint" />
            <Array as="points">
              <mxPoint x="60" y="761" />
              <mxPoint x="260" y="761" />
            </Array>
          </mxGeometry>
        </mxCell>
        <mxCell id="y_Txg5mz7YeZRh-baJeL-451" value="결제화면" style="whiteSpace=wrap;html=1;rounded=0;shadow=1;labelBackgroundColor=none;strokeWidth=1;fontFamily=Verdana;fontSize=8;align=center;container=0;" vertex="1" parent="y_Txg5mz7YeZRh-baJeL-463">
          <mxGeometry y="681" width="120" height="40" as="geometry" />
        </mxCell>
        <mxCell id="y_Txg5mz7YeZRh-baJeL-452" value="&lt;font style=&quot;font-size: 8px;&quot;&gt;No&lt;/font&gt;" style="edgeStyle=orthogonalEdgeStyle;rounded=0;orthogonalLoop=1;jettySize=auto;html=1;entryX=1;entryY=0.5;entryDx=0;entryDy=0;" edge="1" parent="y_Txg5mz7YeZRh-baJeL-463" source="y_Txg5mz7YeZRh-baJeL-447" target="y_Txg5mz7YeZRh-baJeL-451">
          <mxGeometry x="-1" y="10" relative="1" as="geometry">
            <mxPoint as="offset" />
          </mxGeometry>
        </mxCell>
        <mxCell id="8Y2Svph_4gTFFqQ34ZRm-1" value="" style="group" vertex="1" connectable="0" parent="1">
          <mxGeometry x="4230" y="3020" width="767" height="820" as="geometry" />
        </mxCell>
        <mxCell id="y_Txg5mz7YeZRh-baJeL-442" value="&lt;font size=&quot;1&quot;&gt;게시판 DB&lt;br&gt;&lt;/font&gt;저장" style="shape=cylinder3;whiteSpace=wrap;html=1;boundedLbl=1;backgroundOutline=1;size=7.974358974358893;" vertex="1" parent="8Y2Svph_4gTFFqQ34ZRm-1">
          <mxGeometry x="495.25" y="760" width="58.5" height="60" as="geometry" />
        </mxCell>
        <mxCell id="y_Txg5mz7YeZRh-baJeL-308" value="마이페이지 화면" style="whiteSpace=wrap;html=1;rounded=0;shadow=1;labelBackgroundColor=none;strokeWidth=1;fontFamily=Verdana;fontSize=8;align=center;container=0;fillColor=#f5f5f5;fontColor=#333333;strokeColor=#666666;" vertex="1" parent="8Y2Svph_4gTFFqQ34ZRm-1">
          <mxGeometry x="310" width="120" height="40" as="geometry" />
        </mxCell>
        <mxCell id="y_Txg5mz7YeZRh-baJeL-310" value="게시판" style="whiteSpace=wrap;html=1;rounded=0;shadow=1;labelBackgroundColor=none;strokeWidth=1;fontFamily=Verdana;fontSize=8;align=center;container=0;" vertex="1" parent="8Y2Svph_4gTFFqQ34ZRm-1">
          <mxGeometry x="310" y="70" width="120" height="40" as="geometry" />
        </mxCell>
        <mxCell id="y_Txg5mz7YeZRh-baJeL-353" style="edgeStyle=orthogonalEdgeStyle;rounded=0;orthogonalLoop=1;jettySize=auto;html=1;entryX=0.5;entryY=0;entryDx=0;entryDy=0;" edge="1" parent="8Y2Svph_4gTFFqQ34ZRm-1" source="y_Txg5mz7YeZRh-baJeL-308" target="y_Txg5mz7YeZRh-baJeL-310">
          <mxGeometry relative="1" as="geometry" />
        </mxCell>
        <mxCell id="y_Txg5mz7YeZRh-baJeL-309" style="edgeStyle=orthogonalEdgeStyle;rounded=0;orthogonalLoop=1;jettySize=auto;html=1;entryX=0.5;entryY=0;entryDx=0;entryDy=0;exitX=0.75;exitY=1;exitDx=0;exitDy=0;" edge="1" parent="8Y2Svph_4gTFFqQ34ZRm-1" source="y_Txg5mz7YeZRh-baJeL-310" target="y_Txg5mz7YeZRh-baJeL-357">
          <mxGeometry relative="1" as="geometry">
            <mxPoint x="439" y="160" as="targetPoint" />
            <Array as="points">
              <mxPoint x="400" y="135" />
              <mxPoint x="437" y="135" />
            </Array>
          </mxGeometry>
        </mxCell>
        <mxCell id="y_Txg5mz7YeZRh-baJeL-344" value="공지사항 / F&amp;amp;A" style="whiteSpace=wrap;html=1;rounded=0;shadow=1;labelBackgroundColor=none;strokeWidth=1;fontFamily=Verdana;fontSize=8;align=center;container=0;" vertex="1" parent="8Y2Svph_4gTFFqQ34ZRm-1">
          <mxGeometry x="239" y="160" width="120" height="40" as="geometry" />
        </mxCell>
        <mxCell id="y_Txg5mz7YeZRh-baJeL-345" style="edgeStyle=orthogonalEdgeStyle;rounded=0;orthogonalLoop=1;jettySize=auto;html=1;entryX=0.5;entryY=0;entryDx=0;entryDy=0;exitX=0.25;exitY=1;exitDx=0;exitDy=0;" edge="1" parent="8Y2Svph_4gTFFqQ34ZRm-1" source="y_Txg5mz7YeZRh-baJeL-310" target="y_Txg5mz7YeZRh-baJeL-344">
          <mxGeometry relative="1" as="geometry" />
        </mxCell>
        <mxCell id="y_Txg5mz7YeZRh-baJeL-357" value="Q&amp;amp;A" style="whiteSpace=wrap;html=1;rounded=0;shadow=1;labelBackgroundColor=none;strokeWidth=1;fontFamily=Verdana;fontSize=8;align=center;container=0;" vertex="1" parent="8Y2Svph_4gTFFqQ34ZRm-1">
          <mxGeometry x="377.5" y="160" width="120" height="40" as="geometry" />
        </mxCell>
        <mxCell id="y_Txg5mz7YeZRh-baJeL-358" value="글 작성" style="whiteSpace=wrap;html=1;rounded=0;shadow=1;labelBackgroundColor=none;strokeWidth=1;fontFamily=Verdana;fontSize=8;align=center;container=0;" vertex="1" parent="8Y2Svph_4gTFFqQ34ZRm-1">
          <mxGeometry x="464.5" y="245" width="120" height="40" as="geometry" />
        </mxCell>
        <mxCell id="y_Txg5mz7YeZRh-baJeL-359" style="edgeStyle=orthogonalEdgeStyle;rounded=0;orthogonalLoop=1;jettySize=auto;html=1;entryX=0.5;entryY=0;entryDx=0;entryDy=0;exitX=0.75;exitY=1;exitDx=0;exitDy=0;" edge="1" parent="8Y2Svph_4gTFFqQ34ZRm-1" source="y_Txg5mz7YeZRh-baJeL-357" target="y_Txg5mz7YeZRh-baJeL-358">
          <mxGeometry relative="1" as="geometry">
            <mxPoint x="524.5" y="205" as="sourcePoint" />
          </mxGeometry>
        </mxCell>
        <mxCell id="y_Txg5mz7YeZRh-baJeL-361" value="&lt;font style=&quot;font-size: 8px;&quot;&gt;작성일자&lt;br&gt;제목&lt;br&gt;내용&lt;br&gt;&lt;/font&gt;" style="shape=parallelogram;perimeter=parallelogramPerimeter;whiteSpace=wrap;html=1;fixedSize=1;shadow=1;rounded=0;" vertex="1" parent="8Y2Svph_4gTFFqQ34ZRm-1">
          <mxGeometry x="464.5" y="425" width="120" height="80" as="geometry" />
        </mxCell>
        <mxCell id="y_Txg5mz7YeZRh-baJeL-367" style="edgeStyle=orthogonalEdgeStyle;rounded=0;orthogonalLoop=1;jettySize=auto;html=1;entryX=0.5;entryY=0;entryDx=0;entryDy=0;" edge="1" parent="8Y2Svph_4gTFFqQ34ZRm-1" source="y_Txg5mz7YeZRh-baJeL-363" target="y_Txg5mz7YeZRh-baJeL-361">
          <mxGeometry relative="1" as="geometry" />
        </mxCell>
        <mxCell id="y_Txg5mz7YeZRh-baJeL-368" value="&lt;font style=&quot;font-size: 8px;&quot;&gt;Yes&lt;/font&gt;" style="edgeLabel;html=1;align=center;verticalAlign=middle;resizable=0;points=[];" vertex="1" connectable="0" parent="y_Txg5mz7YeZRh-baJeL-367">
          <mxGeometry x="-0.8138" y="1" relative="1" as="geometry">
            <mxPoint x="9" y="6" as="offset" />
          </mxGeometry>
        </mxCell>
        <mxCell id="y_Txg5mz7YeZRh-baJeL-363" value="로그인 여부" style="rhombus;whiteSpace=wrap;html=1;rounded=0;shadow=1;labelBackgroundColor=none;strokeWidth=1;fontFamily=Verdana;fontSize=8;align=center;container=0;" vertex="1" parent="8Y2Svph_4gTFFqQ34ZRm-1">
          <mxGeometry x="474.5" y="325" width="100" height="60" as="geometry" />
        </mxCell>
        <mxCell id="y_Txg5mz7YeZRh-baJeL-364" style="edgeStyle=orthogonalEdgeStyle;rounded=0;orthogonalLoop=1;jettySize=auto;html=1;entryX=0.5;entryY=0;entryDx=0;entryDy=0;" edge="1" parent="8Y2Svph_4gTFFqQ34ZRm-1" source="y_Txg5mz7YeZRh-baJeL-358" target="y_Txg5mz7YeZRh-baJeL-363">
          <mxGeometry relative="1" as="geometry" />
        </mxCell>
        <mxCell id="y_Txg5mz7YeZRh-baJeL-370" style="edgeStyle=orthogonalEdgeStyle;rounded=0;orthogonalLoop=1;jettySize=auto;html=1;entryX=1;entryY=0.5;entryDx=0;entryDy=0;" edge="1" parent="8Y2Svph_4gTFFqQ34ZRm-1" source="y_Txg5mz7YeZRh-baJeL-363" target="y_Txg5mz7YeZRh-baJeL-369">
          <mxGeometry relative="1" as="geometry" />
        </mxCell>
        <mxCell id="y_Txg5mz7YeZRh-baJeL-371" value="&lt;span style=&quot;font-size: 8px;&quot;&gt;No&lt;/span&gt;" style="edgeLabel;html=1;align=center;verticalAlign=middle;resizable=0;points=[];" vertex="1" connectable="0" parent="y_Txg5mz7YeZRh-baJeL-370">
          <mxGeometry x="-0.7667" y="-1" relative="1" as="geometry">
            <mxPoint y="8" as="offset" />
          </mxGeometry>
        </mxCell>
        <mxCell id="y_Txg5mz7YeZRh-baJeL-385" value="공개" style="rhombus;whiteSpace=wrap;html=1;rounded=0;shadow=1;labelBackgroundColor=none;strokeWidth=1;fontFamily=Verdana;fontSize=8;align=center;container=0;" vertex="1" parent="8Y2Svph_4gTFFqQ34ZRm-1">
          <mxGeometry x="474.5" y="535" width="100" height="60" as="geometry" />
        </mxCell>
        <mxCell id="y_Txg5mz7YeZRh-baJeL-386" style="edgeStyle=orthogonalEdgeStyle;rounded=0;orthogonalLoop=1;jettySize=auto;html=1;entryX=0.5;entryY=0;entryDx=0;entryDy=0;" edge="1" parent="8Y2Svph_4gTFFqQ34ZRm-1" source="y_Txg5mz7YeZRh-baJeL-361" target="y_Txg5mz7YeZRh-baJeL-385">
          <mxGeometry relative="1" as="geometry" />
        </mxCell>
        <mxCell id="y_Txg5mz7YeZRh-baJeL-387" value="비밀번호 설정" style="whiteSpace=wrap;html=1;rounded=0;shadow=1;labelBackgroundColor=none;strokeWidth=1;fontFamily=Verdana;fontSize=8;align=center;container=0;" vertex="1" parent="8Y2Svph_4gTFFqQ34ZRm-1">
          <mxGeometry x="617" y="545" width="120" height="40" as="geometry" />
        </mxCell>
        <mxCell id="y_Txg5mz7YeZRh-baJeL-388" value="&lt;font style=&quot;font-size: 8px;&quot;&gt;No&lt;/font&gt;" style="edgeStyle=orthogonalEdgeStyle;rounded=0;orthogonalLoop=1;jettySize=auto;html=1;entryX=0;entryY=0.5;entryDx=0;entryDy=0;exitX=1;exitY=0.5;exitDx=0;exitDy=0;" edge="1" parent="8Y2Svph_4gTFFqQ34ZRm-1" source="y_Txg5mz7YeZRh-baJeL-385" target="y_Txg5mz7YeZRh-baJeL-387">
          <mxGeometry x="-0.8824" y="-10" relative="1" as="geometry">
            <mxPoint x="574.5" y="565" as="sourcePoint" />
            <mxPoint x="617" y="565" as="targetPoint" />
            <mxPoint as="offset" />
          </mxGeometry>
        </mxCell>
        <mxCell id="y_Txg5mz7YeZRh-baJeL-392" style="edgeStyle=orthogonalEdgeStyle;rounded=0;orthogonalLoop=1;jettySize=auto;html=1;entryX=1.001;entryY=0.562;entryDx=0;entryDy=0;entryPerimeter=0;exitX=1;exitY=0.5;exitDx=0;exitDy=0;exitPerimeter=0;" edge="1" parent="8Y2Svph_4gTFFqQ34ZRm-1" source="y_Txg5mz7YeZRh-baJeL-442" target="y_Txg5mz7YeZRh-baJeL-357">
          <mxGeometry relative="1" as="geometry">
            <mxPoint x="520" y="180" as="targetPoint" />
            <Array as="points">
              <mxPoint x="767" y="790" />
              <mxPoint x="767" y="183" />
            </Array>
          </mxGeometry>
        </mxCell>
        <mxCell id="y_Txg5mz7YeZRh-baJeL-443" style="edgeStyle=orthogonalEdgeStyle;rounded=0;orthogonalLoop=1;jettySize=auto;html=1;entryX=0.5;entryY=0;entryDx=0;entryDy=0;entryPerimeter=0;" edge="1" parent="8Y2Svph_4gTFFqQ34ZRm-1" source="y_Txg5mz7YeZRh-baJeL-389" target="y_Txg5mz7YeZRh-baJeL-442">
          <mxGeometry relative="1" as="geometry" />
        </mxCell>
        <mxCell id="y_Txg5mz7YeZRh-baJeL-389" value="글 작성 완료" style="whiteSpace=wrap;html=1;rounded=0;shadow=1;labelBackgroundColor=none;strokeWidth=1;fontFamily=Verdana;fontSize=8;align=center;container=0;" vertex="1" parent="8Y2Svph_4gTFFqQ34ZRm-1">
          <mxGeometry x="464.5" y="655" width="120" height="40" as="geometry" />
        </mxCell>
        <mxCell id="y_Txg5mz7YeZRh-baJeL-390" value="&lt;font style=&quot;font-size: 8px;&quot;&gt;Yes&lt;/font&gt;" style="edgeStyle=orthogonalEdgeStyle;rounded=0;orthogonalLoop=1;jettySize=auto;html=1;entryX=0.5;entryY=0;entryDx=0;entryDy=0;" edge="1" parent="8Y2Svph_4gTFFqQ34ZRm-1" source="y_Txg5mz7YeZRh-baJeL-385" target="y_Txg5mz7YeZRh-baJeL-389">
          <mxGeometry x="-1" y="-17" relative="1" as="geometry">
            <mxPoint x="-1" as="offset" />
          </mxGeometry>
        </mxCell>
        <mxCell id="y_Txg5mz7YeZRh-baJeL-391" style="edgeStyle=orthogonalEdgeStyle;rounded=0;orthogonalLoop=1;jettySize=auto;html=1;entryX=0.5;entryY=0;entryDx=0;entryDy=0;exitX=0.5;exitY=1;exitDx=0;exitDy=0;" edge="1" parent="8Y2Svph_4gTFFqQ34ZRm-1" source="y_Txg5mz7YeZRh-baJeL-387" target="y_Txg5mz7YeZRh-baJeL-389">
          <mxGeometry relative="1" as="geometry" />
        </mxCell>
        <mxCell id="y_Txg5mz7YeZRh-baJeL-394" value="댓글 작성" style="whiteSpace=wrap;html=1;rounded=0;shadow=1;labelBackgroundColor=none;strokeWidth=1;fontFamily=Verdana;fontSize=8;align=center;container=0;" vertex="1" parent="8Y2Svph_4gTFFqQ34ZRm-1">
          <mxGeometry y="245" width="120" height="40" as="geometry" />
        </mxCell>
        <mxCell id="y_Txg5mz7YeZRh-baJeL-395" style="edgeStyle=orthogonalEdgeStyle;rounded=0;orthogonalLoop=1;jettySize=auto;html=1;entryX=0.5;entryY=0;entryDx=0;entryDy=0;exitX=0.25;exitY=1;exitDx=0;exitDy=0;" edge="1" parent="8Y2Svph_4gTFFqQ34ZRm-1" source="y_Txg5mz7YeZRh-baJeL-357" target="y_Txg5mz7YeZRh-baJeL-394">
          <mxGeometry relative="1" as="geometry" />
        </mxCell>
        <mxCell id="y_Txg5mz7YeZRh-baJeL-396" value="&lt;font style=&quot;font-size: 8px;&quot;&gt;작성일자&lt;br&gt;내용&lt;br&gt;&lt;/font&gt;" style="shape=parallelogram;perimeter=parallelogramPerimeter;whiteSpace=wrap;html=1;fixedSize=1;shadow=1;rounded=0;" vertex="1" parent="8Y2Svph_4gTFFqQ34ZRm-1">
          <mxGeometry y="315" width="120" height="80" as="geometry" />
        </mxCell>
        <mxCell id="y_Txg5mz7YeZRh-baJeL-397" style="edgeStyle=orthogonalEdgeStyle;rounded=0;orthogonalLoop=1;jettySize=auto;html=1;entryX=0.5;entryY=0;entryDx=0;entryDy=0;" edge="1" parent="8Y2Svph_4gTFFqQ34ZRm-1" source="y_Txg5mz7YeZRh-baJeL-394" target="y_Txg5mz7YeZRh-baJeL-396">
          <mxGeometry relative="1" as="geometry" />
        </mxCell>
        <mxCell id="y_Txg5mz7YeZRh-baJeL-464" value="&lt;font size=&quot;1&quot;&gt;댓글 DB&lt;br&gt;&lt;/font&gt;저장" style="shape=cylinder3;whiteSpace=wrap;html=1;boundedLbl=1;backgroundOutline=1;size=7.974358974358893;" vertex="1" parent="8Y2Svph_4gTFFqQ34ZRm-1">
          <mxGeometry x="30.75" y="425" width="58.5" height="60" as="geometry" />
        </mxCell>
        <mxCell id="y_Txg5mz7YeZRh-baJeL-465" style="edgeStyle=orthogonalEdgeStyle;rounded=0;orthogonalLoop=1;jettySize=auto;html=1;entryX=0.5;entryY=0;entryDx=0;entryDy=0;entryPerimeter=0;" edge="1" parent="8Y2Svph_4gTFFqQ34ZRm-1" source="y_Txg5mz7YeZRh-baJeL-396" target="y_Txg5mz7YeZRh-baJeL-464">
          <mxGeometry relative="1" as="geometry" />
        </mxCell>
        <mxCell id="y_Txg5mz7YeZRh-baJeL-369" value="알림&lt;br&gt;로그인이 필요한 서비스입니다." style="rounded=1;whiteSpace=wrap;html=1;shadow=1;labelBackgroundColor=none;strokeWidth=1;fontFamily=Verdana;fontSize=8;align=center;container=0;" vertex="1" parent="8Y2Svph_4gTFFqQ34ZRm-1">
          <mxGeometry x="324.5" y="335" width="110" height="40" as="geometry" />
        </mxCell>
        <mxCell id="y_Txg5mz7YeZRh-baJeL-373" style="edgeStyle=orthogonalEdgeStyle;rounded=0;orthogonalLoop=1;jettySize=auto;html=1;entryX=0.5;entryY=0;entryDx=0;entryDy=0;" edge="1" parent="8Y2Svph_4gTFFqQ34ZRm-1" source="y_Txg5mz7YeZRh-baJeL-369">
          <mxGeometry relative="1" as="geometry">
            <mxPoint x="379.5" y="415" as="targetPoint" />
          </mxGeometry>
        </mxCell>
        <mxCell id="y_Txg5mz7YeZRh-baJeL-379" value="로그인 할 것인가?" style="rhombus;whiteSpace=wrap;html=1;rounded=0;shadow=1;labelBackgroundColor=none;strokeWidth=1;fontFamily=Verdana;fontSize=8;align=center;container=0;" vertex="1" parent="8Y2Svph_4gTFFqQ34ZRm-1">
          <mxGeometry x="329.5" y="415" width="100" height="60" as="geometry" />
        </mxCell>
        <mxCell id="y_Txg5mz7YeZRh-baJeL-382" value="메인 화면" style="whiteSpace=wrap;html=1;rounded=0;shadow=1;labelBackgroundColor=none;strokeWidth=1;fontFamily=Verdana;fontSize=8;align=center;container=0;fillColor=#f5f5f5;fontColor=#333333;strokeColor=#666666;" vertex="1" parent="8Y2Svph_4gTFFqQ34ZRm-1">
          <mxGeometry x="177" y="425" width="120" height="40" as="geometry" />
        </mxCell>
        <mxCell id="y_Txg5mz7YeZRh-baJeL-381" style="edgeStyle=orthogonalEdgeStyle;rounded=0;orthogonalLoop=1;jettySize=auto;html=1;exitX=0;exitY=0.5;exitDx=0;exitDy=0;entryX=1;entryY=0.5;entryDx=0;entryDy=0;" edge="1" parent="8Y2Svph_4gTFFqQ34ZRm-1" source="y_Txg5mz7YeZRh-baJeL-379" target="y_Txg5mz7YeZRh-baJeL-382">
          <mxGeometry relative="1" as="geometry">
            <mxPoint x="307" y="444.8888888888887" as="targetPoint" />
          </mxGeometry>
        </mxCell>
        <mxCell id="y_Txg5mz7YeZRh-baJeL-383" value="&lt;span style=&quot;font-size: 8px;&quot;&gt;No&lt;br&gt;&lt;/span&gt;" style="edgeLabel;html=1;align=center;verticalAlign=middle;resizable=0;points=[];" vertex="1" connectable="0" parent="y_Txg5mz7YeZRh-baJeL-381">
          <mxGeometry x="-0.4701" relative="1" as="geometry">
            <mxPoint x="4" y="7" as="offset" />
          </mxGeometry>
        </mxCell>
        <mxCell id="y_Txg5mz7YeZRh-baJeL-384" value="로그인 화면" style="whiteSpace=wrap;html=1;rounded=0;shadow=1;labelBackgroundColor=none;strokeWidth=1;fontFamily=Verdana;fontSize=8;align=center;container=0;fillColor=#f5f5f5;fontColor=#333333;strokeColor=#666666;" vertex="1" parent="8Y2Svph_4gTFFqQ34ZRm-1">
          <mxGeometry x="319.5" y="505" width="120" height="40" as="geometry" />
        </mxCell>
        <mxCell id="y_Txg5mz7YeZRh-baJeL-380" value="&lt;font style=&quot;font-size: 8px;&quot;&gt;Yes&lt;/font&gt;" style="edgeStyle=orthogonalEdgeStyle;rounded=0;orthogonalLoop=1;jettySize=auto;html=1;entryX=0.5;entryY=0;entryDx=0;entryDy=0;" edge="1" parent="8Y2Svph_4gTFFqQ34ZRm-1" source="y_Txg5mz7YeZRh-baJeL-379" target="y_Txg5mz7YeZRh-baJeL-384">
          <mxGeometry x="0.2001" y="7" relative="1" as="geometry">
            <mxPoint x="379.5" y="505" as="targetPoint" />
            <mxPoint as="offset" />
          </mxGeometry>
        </mxCell>
        <mxCell id="8Y2Svph_4gTFFqQ34ZRm-2" value="" style="group" vertex="1" connectable="0" parent="1">
          <mxGeometry x="4890" y="1819" width="500" height="640" as="geometry" />
        </mxCell>
        <mxCell id="y_Txg5mz7YeZRh-baJeL-398" value="리뷰 화면" style="whiteSpace=wrap;html=1;rounded=0;shadow=1;labelBackgroundColor=none;strokeWidth=1;fontFamily=Verdana;fontSize=8;align=center;container=0;fillColor=#f5f5f5;fontColor=#333333;strokeColor=#666666;" vertex="1" parent="8Y2Svph_4gTFFqQ34ZRm-2">
          <mxGeometry x="290" width="120" height="40" as="geometry" />
        </mxCell>
        <mxCell id="y_Txg5mz7YeZRh-baJeL-414" value="로그인 여부" style="rhombus;whiteSpace=wrap;html=1;rounded=0;shadow=1;labelBackgroundColor=none;strokeWidth=1;fontFamily=Verdana;fontSize=8;align=center;container=0;" vertex="1" parent="8Y2Svph_4gTFFqQ34ZRm-2">
          <mxGeometry x="300" y="200" width="100" height="60" as="geometry" />
        </mxCell>
        <mxCell id="y_Txg5mz7YeZRh-baJeL-406" value="서비스 이용 여부" style="rhombus;whiteSpace=wrap;html=1;rounded=0;shadow=1;labelBackgroundColor=none;strokeWidth=1;fontFamily=Verdana;fontSize=8;align=center;container=0;" vertex="1" parent="8Y2Svph_4gTFFqQ34ZRm-2">
          <mxGeometry x="300" y="363" width="100" height="60" as="geometry" />
        </mxCell>
        <mxCell id="y_Txg5mz7YeZRh-baJeL-417" style="edgeStyle=orthogonalEdgeStyle;rounded=0;orthogonalLoop=1;jettySize=auto;html=1;entryX=0.5;entryY=0;entryDx=0;entryDy=0;" edge="1" parent="8Y2Svph_4gTFFqQ34ZRm-2" source="y_Txg5mz7YeZRh-baJeL-414" target="y_Txg5mz7YeZRh-baJeL-406">
          <mxGeometry relative="1" as="geometry" />
        </mxCell>
        <mxCell id="y_Txg5mz7YeZRh-baJeL-418" value="&lt;span style=&quot;font-size: 8px;&quot;&gt;Yes&lt;/span&gt;" style="edgeLabel;html=1;align=center;verticalAlign=middle;resizable=0;points=[];" vertex="1" connectable="0" parent="y_Txg5mz7YeZRh-baJeL-417">
          <mxGeometry x="-0.2579" relative="1" as="geometry">
            <mxPoint x="11" y="-5" as="offset" />
          </mxGeometry>
        </mxCell>
        <mxCell id="y_Txg5mz7YeZRh-baJeL-408" value="알림&lt;br&gt;세탁 / 헌옷 수거 서비스 이용 후 작성가능합니다." style="rounded=1;whiteSpace=wrap;html=1;shadow=1;labelBackgroundColor=none;strokeWidth=1;fontFamily=Verdana;fontSize=8;align=center;container=0;" vertex="1" parent="8Y2Svph_4gTFFqQ34ZRm-2">
          <mxGeometry x="130" y="373" width="110" height="40" as="geometry" />
        </mxCell>
        <mxCell id="y_Txg5mz7YeZRh-baJeL-409" style="edgeStyle=orthogonalEdgeStyle;rounded=0;orthogonalLoop=1;jettySize=auto;html=1;entryX=1;entryY=0.5;entryDx=0;entryDy=0;" edge="1" parent="8Y2Svph_4gTFFqQ34ZRm-2" source="y_Txg5mz7YeZRh-baJeL-406" target="y_Txg5mz7YeZRh-baJeL-408">
          <mxGeometry relative="1" as="geometry" />
        </mxCell>
        <mxCell id="y_Txg5mz7YeZRh-baJeL-410" value="&lt;span style=&quot;font-size: 8px;&quot;&gt;No&lt;br&gt;&lt;/span&gt;" style="edgeLabel;html=1;align=center;verticalAlign=middle;resizable=0;points=[];" vertex="1" connectable="0" parent="y_Txg5mz7YeZRh-baJeL-409">
          <mxGeometry x="-0.3947" relative="1" as="geometry">
            <mxPoint x="13" y="9" as="offset" />
          </mxGeometry>
        </mxCell>
        <mxCell id="y_Txg5mz7YeZRh-baJeL-437" value="&lt;font style=&quot;font-size: 8px;&quot;&gt;No&lt;/font&gt;" style="edgeStyle=orthogonalEdgeStyle;rounded=0;orthogonalLoop=1;jettySize=auto;html=1;entryX=1;entryY=0.5;entryDx=0;entryDy=0;" edge="1" parent="8Y2Svph_4gTFFqQ34ZRm-2" source="y_Txg5mz7YeZRh-baJeL-414" target="y_Txg5mz7YeZRh-baJeL-431">
          <mxGeometry x="-1" y="10" relative="1" as="geometry">
            <mxPoint as="offset" />
          </mxGeometry>
        </mxCell>
        <mxCell id="y_Txg5mz7YeZRh-baJeL-439" style="edgeStyle=orthogonalEdgeStyle;rounded=0;orthogonalLoop=1;jettySize=auto;html=1;entryX=0.5;entryY=0;entryDx=0;entryDy=0;" edge="1" parent="8Y2Svph_4gTFFqQ34ZRm-2" source="y_Txg5mz7YeZRh-baJeL-438" target="y_Txg5mz7YeZRh-baJeL-414">
          <mxGeometry relative="1" as="geometry" />
        </mxCell>
        <mxCell id="y_Txg5mz7YeZRh-baJeL-438" value="리뷰 작성" style="whiteSpace=wrap;html=1;rounded=0;shadow=1;labelBackgroundColor=none;strokeWidth=1;fontFamily=Verdana;fontSize=8;align=center;container=0;" vertex="1" parent="8Y2Svph_4gTFFqQ34ZRm-2">
          <mxGeometry x="290" y="70" width="120" height="40" as="geometry" />
        </mxCell>
        <mxCell id="y_Txg5mz7YeZRh-baJeL-440" style="edgeStyle=orthogonalEdgeStyle;rounded=0;orthogonalLoop=1;jettySize=auto;html=1;entryX=0.5;entryY=0;entryDx=0;entryDy=0;" edge="1" parent="8Y2Svph_4gTFFqQ34ZRm-2" source="y_Txg5mz7YeZRh-baJeL-398" target="y_Txg5mz7YeZRh-baJeL-438">
          <mxGeometry relative="1" as="geometry" />
        </mxCell>
        <mxCell id="y_Txg5mz7YeZRh-baJeL-441" value="&lt;font style=&quot;font-size: 8px;&quot;&gt;작성일자&lt;br&gt;내용&lt;br&gt;&lt;/font&gt;" style="shape=parallelogram;perimeter=parallelogramPerimeter;whiteSpace=wrap;html=1;fixedSize=1;shadow=1;rounded=0;" vertex="1" parent="8Y2Svph_4gTFFqQ34ZRm-2">
          <mxGeometry x="290" y="460" width="120" height="80" as="geometry" />
        </mxCell>
        <mxCell id="y_Txg5mz7YeZRh-baJeL-412" style="edgeStyle=orthogonalEdgeStyle;rounded=0;orthogonalLoop=1;jettySize=auto;html=1;entryX=0.5;entryY=0;entryDx=0;entryDy=0;" edge="1" parent="8Y2Svph_4gTFFqQ34ZRm-2" source="y_Txg5mz7YeZRh-baJeL-406" target="y_Txg5mz7YeZRh-baJeL-441">
          <mxGeometry relative="1" as="geometry">
            <mxPoint x="350" y="466" as="targetPoint" />
          </mxGeometry>
        </mxCell>
        <mxCell id="y_Txg5mz7YeZRh-baJeL-413" value="&lt;span style=&quot;font-size: 8px;&quot;&gt;Yes&lt;/span&gt;" style="edgeLabel;html=1;align=center;verticalAlign=middle;resizable=0;points=[];" vertex="1" connectable="0" parent="y_Txg5mz7YeZRh-baJeL-412">
          <mxGeometry x="-0.435" y="-1" relative="1" as="geometry">
            <mxPoint x="11" y="-2" as="offset" />
          </mxGeometry>
        </mxCell>
        <mxCell id="y_Txg5mz7YeZRh-baJeL-446" style="edgeStyle=orthogonalEdgeStyle;rounded=0;orthogonalLoop=1;jettySize=auto;html=1;entryX=1;entryY=0.5;entryDx=0;entryDy=0;" edge="1" parent="8Y2Svph_4gTFFqQ34ZRm-2" source="y_Txg5mz7YeZRh-baJeL-444" target="y_Txg5mz7YeZRh-baJeL-398">
          <mxGeometry relative="1" as="geometry">
            <Array as="points">
              <mxPoint x="500" y="610" />
              <mxPoint x="500" y="20" />
            </Array>
          </mxGeometry>
        </mxCell>
        <mxCell id="y_Txg5mz7YeZRh-baJeL-444" value="&lt;font size=&quot;1&quot;&gt;리뷰 DB&lt;br&gt;저장&lt;br&gt;&lt;/font&gt;" style="shape=cylinder3;whiteSpace=wrap;html=1;boundedLbl=1;backgroundOutline=1;size=7.974358974358893;" vertex="1" parent="8Y2Svph_4gTFFqQ34ZRm-2">
          <mxGeometry x="320.75" y="580" width="58.5" height="60" as="geometry" />
        </mxCell>
        <mxCell id="y_Txg5mz7YeZRh-baJeL-445" style="edgeStyle=orthogonalEdgeStyle;rounded=0;orthogonalLoop=1;jettySize=auto;html=1;entryX=0.5;entryY=0;entryDx=0;entryDy=0;entryPerimeter=0;" edge="1" parent="8Y2Svph_4gTFFqQ34ZRm-2" source="y_Txg5mz7YeZRh-baJeL-441" target="y_Txg5mz7YeZRh-baJeL-444">
          <mxGeometry relative="1" as="geometry" />
        </mxCell>
        <mxCell id="y_Txg5mz7YeZRh-baJeL-429" value="알림&lt;br&gt;로그인이 필요한 서비스입니다." style="rounded=1;whiteSpace=wrap;html=1;shadow=1;labelBackgroundColor=none;strokeWidth=1;fontFamily=Verdana;fontSize=8;align=center;container=0;" vertex="1" parent="8Y2Svph_4gTFFqQ34ZRm-2">
          <mxGeometry x="147.5" y="120" width="110" height="40" as="geometry" />
        </mxCell>
        <mxCell id="y_Txg5mz7YeZRh-baJeL-430" style="edgeStyle=orthogonalEdgeStyle;rounded=0;orthogonalLoop=1;jettySize=auto;html=1;entryX=0.5;entryY=0;entryDx=0;entryDy=0;" edge="1" parent="8Y2Svph_4gTFFqQ34ZRm-2" source="y_Txg5mz7YeZRh-baJeL-429">
          <mxGeometry relative="1" as="geometry">
            <mxPoint x="202.5" y="200" as="targetPoint" />
          </mxGeometry>
        </mxCell>
        <mxCell id="y_Txg5mz7YeZRh-baJeL-431" value="로그인 할 것인가?" style="rhombus;whiteSpace=wrap;html=1;rounded=0;shadow=1;labelBackgroundColor=none;strokeWidth=1;fontFamily=Verdana;fontSize=8;align=center;container=0;" vertex="1" parent="8Y2Svph_4gTFFqQ34ZRm-2">
          <mxGeometry x="152.5" y="200" width="100" height="60" as="geometry" />
        </mxCell>
        <mxCell id="y_Txg5mz7YeZRh-baJeL-432" value="메인 화면" style="whiteSpace=wrap;html=1;rounded=0;shadow=1;labelBackgroundColor=none;strokeWidth=1;fontFamily=Verdana;fontSize=8;align=center;container=0;fillColor=#f5f5f5;fontColor=#333333;strokeColor=#666666;" vertex="1" parent="8Y2Svph_4gTFFqQ34ZRm-2">
          <mxGeometry y="210" width="120" height="40" as="geometry" />
        </mxCell>
        <mxCell id="y_Txg5mz7YeZRh-baJeL-433" style="edgeStyle=orthogonalEdgeStyle;rounded=0;orthogonalLoop=1;jettySize=auto;html=1;exitX=0;exitY=0.5;exitDx=0;exitDy=0;entryX=1;entryY=0.5;entryDx=0;entryDy=0;" edge="1" parent="8Y2Svph_4gTFFqQ34ZRm-2" source="y_Txg5mz7YeZRh-baJeL-431" target="y_Txg5mz7YeZRh-baJeL-432">
          <mxGeometry relative="1" as="geometry">
            <mxPoint x="130" y="229.8888888888887" as="targetPoint" />
          </mxGeometry>
        </mxCell>
        <mxCell id="y_Txg5mz7YeZRh-baJeL-434" value="&lt;span style=&quot;font-size: 8px;&quot;&gt;No&lt;br&gt;&lt;/span&gt;" style="edgeLabel;html=1;align=center;verticalAlign=middle;resizable=0;points=[];" vertex="1" connectable="0" parent="y_Txg5mz7YeZRh-baJeL-433">
          <mxGeometry x="-0.4701" relative="1" as="geometry">
            <mxPoint x="4" y="7" as="offset" />
          </mxGeometry>
        </mxCell>
        <mxCell id="y_Txg5mz7YeZRh-baJeL-435" value="로그인 화면" style="whiteSpace=wrap;html=1;rounded=0;shadow=1;labelBackgroundColor=none;strokeWidth=1;fontFamily=Verdana;fontSize=8;align=center;container=0;fillColor=#f5f5f5;fontColor=#333333;strokeColor=#666666;" vertex="1" parent="8Y2Svph_4gTFFqQ34ZRm-2">
          <mxGeometry x="142.5" y="290" width="120" height="40" as="geometry" />
        </mxCell>
        <mxCell id="y_Txg5mz7YeZRh-baJeL-436" value="&lt;font style=&quot;font-size: 8px;&quot;&gt;Yes&lt;/font&gt;" style="edgeStyle=orthogonalEdgeStyle;rounded=0;orthogonalLoop=1;jettySize=auto;html=1;entryX=0.5;entryY=0;entryDx=0;entryDy=0;" edge="1" parent="8Y2Svph_4gTFFqQ34ZRm-2" source="y_Txg5mz7YeZRh-baJeL-431" target="y_Txg5mz7YeZRh-baJeL-435">
          <mxGeometry x="0.2001" y="7" relative="1" as="geometry">
            <mxPoint x="202.5" y="290" as="targetPoint" />
            <mxPoint as="offset" />
          </mxGeometry>
        </mxCell>
      </root>
    </mxGraphModel>
  </diagram>
</mxfile>
